<svg xmlns="http://www.w3.org/2000/svg" style="display: none">
  <defs>
    <symbol viewBox="0 0 16 16" version="1.1" id="icon--bubble_exclamation">
      <g stroke="none" stroke-width="1" fill="none" fill-rule="evenodd">
        <path d="M4.3268623,16 C4.62302483,16 4.85417607,15.8579545 5.20812641,15.53125 L7.86636569,13.1732955 L12.6049661,13.1732955 C14.7792325,13.1803977 16,11.9517045 16,9.84232955 L16,4.33096591 C16,2.22159091 14.7792325,1 12.6049661,1 L3.39503386,1 C1.22076749,1 0,2.22159091 0,4.33096591 L0,9.84232955 C0,11.9517045 1.2496614,13.1732955 3.34446953,13.1732955 L3.63340858,13.1732955 L3.63340858,15.2329545 C3.63340858,15.6946023 3.89345372,16 4.3268623,16 Z M8.00361174,8.30823864 C7.58465011,8.30823864 7.3462754,8.08096591 7.33182844,7.65482955 L7.2234763,4.07528409 C7.21625282,3.64204545 7.53408578,3.33664773 7.99638826,3.33664773 C8.45869074,3.33664773 8.79097065,3.64914773 8.7765237,4.08238636 L8.66817156,7.65482955 C8.6537246,8.08096591 8.41534989,8.30823864 8.00361174,8.30823864 Z M8.00361174,10.7585227 C7.5268623,10.7585227 7.12234763,10.4105114 7.12234763,9.94886364 C7.12234763,9.48011364 7.51963883,9.13210227 8.00361174,9.13210227 C8.49480813,9.13210227 8.89209932,9.48011364 8.89209932,9.94886364 C8.89209932,10.4176136 8.48758465,10.7585227 8.00361174,10.7585227 Z" fill="currentColor" fill-rule="nonzero"/>
      </g>
    </symbol>
    <symbol viewBox="0 0 16 16" version="1.1" id="icon--calendar">
      <g stroke="none" stroke-width="1" fill="none" fill-rule="evenodd">
        <g transform="translate(0.000000, 1.000000)" fill="currentColor" fill-rule="nonzero">
          <path d="M2.5625,14.5859375 L13.3125,14.5859375 C15,14.5859375 15.875,13.7109375 15.875,12.046875 L15.875,2.5390625 C15.875,0.8671875 15,0 13.3125,0 L2.5625,0 C0.875,0 0,0.8671875 0,2.5390625 L0,12.046875 C0,13.71875 0.875,14.5859375 2.5625,14.5859375 Z M2.5390625,13.0546875 C1.890625,13.0546875 1.53125,12.7109375 1.53125,12.03125 L1.53125,4.8125 C1.53125,4.125 1.890625,3.7890625 2.5390625,3.7890625 L13.3203125,3.7890625 C13.9765625,3.7890625 14.34375,4.125 14.34375,4.8125 L14.34375,12.03125 C14.34375,12.7109375 13.9765625,13.0546875 13.3203125,13.0546875 L2.5390625,13.0546875 Z M6.4296875,6.5 L6.890625,6.5 C7.171875,6.5 7.265625,6.4140625 7.265625,6.1328125 L7.265625,5.6796875 C7.265625,5.3984375 7.171875,5.3125 6.890625,5.3125 L6.4296875,5.3125 C6.15625,5.3125 6.0625,5.3984375 6.0625,5.6796875 L6.0625,6.1328125 C6.0625,6.4140625 6.15625,6.5 6.4296875,6.5 Z M8.9921875,6.5 L9.4453125,6.5 C9.7265625,6.5 9.8203125,6.4140625 9.8203125,6.1328125 L9.8203125,5.6796875 C9.8203125,5.3984375 9.7265625,5.3125 9.4453125,5.3125 L8.9921875,5.3125 C8.7109375,5.3125 8.6171875,5.3984375 8.6171875,5.6796875 L8.6171875,6.1328125 C8.6171875,6.4140625 8.7109375,6.5 8.9921875,6.5 Z M11.546875,6.5 L12,6.5 C12.28125,6.5 12.375,6.4140625 12.375,6.1328125 L12.375,5.6796875 C12.375,5.3984375 12.28125,5.3125 12,5.3125 L11.546875,5.3125 C11.265625,5.3125 11.171875,5.3984375 11.171875,5.6796875 L11.171875,6.1328125 C11.171875,6.4140625 11.265625,6.5 11.546875,6.5 Z M3.875,9.015625 L4.3359375,9.015625 C4.6171875,9.015625 4.7109375,8.9296875 4.7109375,8.6484375 L4.7109375,8.1953125 C4.7109375,7.9140625 4.6171875,7.828125 4.3359375,7.828125 L3.875,7.828125 C3.6015625,7.828125 3.5078125,7.9140625 3.5078125,8.1953125 L3.5078125,8.6484375 C3.5078125,8.9296875 3.6015625,9.015625 3.875,9.015625 Z M6.4296875,9.015625 L6.890625,9.015625 C7.171875,9.015625 7.265625,8.9296875 7.265625,8.6484375 L7.265625,8.1953125 C7.265625,7.9140625 7.171875,7.828125 6.890625,7.828125 L6.4296875,7.828125 C6.15625,7.828125 6.0625,7.9140625 6.0625,8.1953125 L6.0625,8.6484375 C6.0625,8.9296875 6.15625,9.015625 6.4296875,9.015625 Z M8.9921875,9.015625 L9.4453125,9.015625 C9.7265625,9.015625 9.8203125,8.9296875 9.8203125,8.6484375 L9.8203125,8.1953125 C9.8203125,7.9140625 9.7265625,7.828125 9.4453125,7.828125 L8.9921875,7.828125 C8.7109375,7.828125 8.6171875,7.9140625 8.6171875,8.1953125 L8.6171875,8.6484375 C8.6171875,8.9296875 8.7109375,9.015625 8.9921875,9.015625 Z M11.546875,9.015625 L12,9.015625 C12.28125,9.015625 12.375,8.9296875 12.375,8.6484375 L12.375,8.1953125 C12.375,7.9140625 12.28125,7.828125 12,7.828125 L11.546875,7.828125 C11.265625,7.828125 11.171875,7.9140625 11.171875,8.1953125 L11.171875,8.6484375 C11.171875,8.9296875 11.265625,9.015625 11.546875,9.015625 Z M3.875,11.53125 L4.3359375,11.53125 C4.6171875,11.53125 4.7109375,11.4453125 4.7109375,11.1640625 L4.7109375,10.7109375 C4.7109375,10.4296875 4.6171875,10.34375 4.3359375,10.34375 L3.875,10.34375 C3.6015625,10.34375 3.5078125,10.4296875 3.5078125,10.7109375 L3.5078125,11.1640625 C3.5078125,11.4453125 3.6015625,11.53125 3.875,11.53125 Z M6.4296875,11.53125 L6.890625,11.53125 C7.171875,11.53125 7.265625,11.4453125 7.265625,11.1640625 L7.265625,10.7109375 C7.265625,10.4296875 7.171875,10.34375 6.890625,10.34375 L6.4296875,10.34375 C6.15625,10.34375 6.0625,10.4296875 6.0625,10.7109375 L6.0625,11.1640625 C6.0625,11.4453125 6.15625,11.53125 6.4296875,11.53125 Z M8.9921875,11.53125 L9.4453125,11.53125 C9.7265625,11.53125 9.8203125,11.4453125 9.8203125,11.1640625 L9.8203125,10.7109375 C9.8203125,10.4296875 9.7265625,10.34375 9.4453125,10.34375 L8.9921875,10.34375 C8.7109375,10.34375 8.6171875,10.4296875 8.6171875,10.7109375 L8.6171875,11.1640625 C8.6171875,11.4453125 8.7109375,11.53125 8.9921875,11.53125 Z"/>
        </g>
      </g>
    </symbol>
    <symbol viewBox="0 0 16 16" version="1.1" id="icon--camera">
      <g stroke="none" stroke-width="1" fill="none" fill-rule="evenodd">
        <g transform="translate(0.000000, 2.000000)" fill="currentColor" fill-rule="nonzero">
          <path d="M2.1238365,12.5034399 L13.8761635,12.5034399 C15.2747875,12.5034399 16,11.7782274 16,10.3990287 L16,3.60663699 C16,2.22743828 15.2747875,1.50222582 13.8761635,1.50222582 L12.101983,1.50222582 C11.5969243,1.50222582 11.4350465,1.41804937 11.1242412,1.0878187 L10.6062323,0.530959126 C10.2695265,0.181303116 9.93282072,0 9.27235937,0 L6.69526507,0 C6.03480372,0 5.69809794,0.181303116 5.36139215,0.530959126 L4.84338325,1.0878187 C4.53905301,1.41157426 4.37070012,1.50222582 3.86564144,1.50222582 L2.1238365,1.50222582 C0.725212465,1.50222582 0,2.22743828 0,3.60663699 L0,10.3990287 C0,11.7782274 0.725212465,12.5034399 2.1238365,12.5034399 Z M2.20153784,11.2343181 C1.6058276,11.2343181 1.26912181,10.9170376 1.26912181,10.2889518 L1.26912181,3.71671388 C1.26912181,3.08862809 1.6058276,2.77134763 2.20153784,2.77134763 L4.23472278,2.77134763 C4.81100769,2.77134763 5.11533792,2.67422096 5.43909348,2.31161473 L5.93767705,1.76770538 C6.30028329,1.37272359 6.49453662,1.26912181 7.06434642,1.26912181 L8.90327803,1.26912181 C9.47308782,1.26912181 9.66734116,1.37272359 10.0299474,1.76123027 L10.528531,2.31161473 C10.8522865,2.66774585 11.1566168,2.77134763 11.7329017,2.77134763 L13.8049373,2.77134763 C14.4006475,2.77134763 14.7308782,3.08862809 14.7308782,3.71671388 L14.7308782,10.2889518 C14.7308782,10.9170376 14.4006475,11.2343181 13.8049373,11.2343181 L2.20153784,11.2343181 Z M8.00323756,10.3731283 C9.93929583,10.3731283 11.4997977,8.81910158 11.4997977,6.87009308 C11.4997977,4.92108458 9.94577094,3.36058276 8.00323756,3.36058276 C6.06070417,3.36058276 4.50667746,4.92108458 4.50667746,6.87009308 C4.50667746,8.81910158 6.06070417,10.3731283 8.00323756,10.3731283 Z M11.7199514,4.53905301 C11.7199514,5.01173614 12.101983,5.38081748 12.568191,5.37434237 C13.0149737,5.37434237 13.4034804,5.00526103 13.4034804,4.53905301 C13.4034804,4.09227034 13.0149737,3.70376366 12.568191,3.70376366 C12.1084581,3.70376366 11.7199514,4.09227034 11.7199514,4.53905301 Z M8.00323756,9.21408337 C6.7082153,9.21408337 5.65924727,8.17159045 5.65924727,6.87009308 C5.65924727,5.5621206 6.7082153,4.51962768 8.00323756,4.51962768 C9.29825981,4.51962768 10.3472278,5.5621206 10.3472278,6.87009308 C10.3472278,8.17159045 9.29825981,9.21408337 8.00323756,9.21408337 Z"/>
        </g>
      </g>
    </symbol>
    <symbol viewBox="0 0 16 16" version="1.1" id="icon--close">
      <g stroke="none" stroke-width="1" fill="none" fill-rule="evenodd">
        <path d="M2.81092662,16 L13.1890734,16 C15.0401714,16 16,15.0401714 16,13.2147831 L16,2.78521693 C16,0.951258704 15.0401714,0 13.1890734,0 L2.81092662,0 C0.959828602,0 0,0.951258704 0,2.78521693 L0,13.2147831 C0,15.0487413 0.959828602,16 2.81092662,16 Z M5.21049813,11.620782 C4.75629352,11.620782 4.40492769,11.2608463 4.40492769,10.7980718 C4.40492769,10.5923942 4.49062667,10.3952866 4.64488484,10.2410284 L6.88162828,7.99571505 L4.64488484,5.75897161 C4.49062667,5.60471344 4.40492769,5.40760578 4.40492769,5.19335833 C4.40492769,4.73915372 4.75629352,4.39635779 5.21049813,4.39635779 C5.44188538,4.39635779 5.62185324,4.47348688 5.77611141,4.62774505 L8.02142475,6.86448848 L10.2838779,4.61917515 C10.4467059,4.45634708 10.6266738,4.379218 10.8580611,4.379218 C11.3036958,4.379218 11.6550616,4.73058382 11.6550616,5.18478843 C11.6550616,5.39903589 11.5865024,5.58757365 11.4236743,5.75040171 L9.17836101,7.99571505 L11.4151044,10.2324585 C11.5693626,10.3867167 11.6550616,10.5838243 11.6550616,10.7980718 C11.6550616,11.2608463 11.2951259,11.620782 10.8409213,11.620782 C10.609534,11.620782 10.4038565,11.535083 10.2581682,11.3808249 L8.02142475,9.14408141 L5.8018211,11.3808249 C5.63899304,11.535083 5.44188538,11.620782 5.21049813,11.620782 Z" fill="currentColor" fill-rule="nonzero"/>
      </g>
    </symbol>
    <symbol viewBox="0 0 16 16" version="1.1" id="icon--gear">
      <g stroke="none" stroke-width="1" fill="none" fill-rule="evenodd">
        <g fill="currentColor" fill-rule="nonzero">
          <path d="M7.31105882,15.9924706 L8.68894118,15.9924706 C9.13317647,15.9924706 9.472,15.7289412 9.56235294,15.2922353 L9.94635294,13.6884706 C10.2023529,13.5981176 10.4508235,13.5002353 10.6767059,13.3948235 L12.0771765,14.2531765 C12.4461176,14.4865882 12.8752941,14.4489412 13.184,14.1402353 L14.1477647,13.1764706 C14.4564706,12.8677647 14.5016471,12.416 14.2531765,12.0470588 L13.4023529,10.6616471 C13.5077647,10.4282353 13.6131765,10.1872941 13.6884706,9.95388235 L15.2997647,9.56988235 C15.7364706,9.472 16,9.14070588 16,8.69647059 L16,7.34117647 C16,6.89694118 15.7364706,6.56564706 15.2997647,6.46776471 L13.7035294,6.08376471 C13.6131765,5.81270588 13.5077647,5.57176471 13.4174118,5.36847059 L14.2682353,3.95294118 C14.5091765,3.57647059 14.4790588,3.15482353 14.1628235,2.83858824 L13.184,1.87482353 C12.8677647,1.58870588 12.4762353,1.536 12.0997647,1.74682353 L10.6767059,2.62023529 C10.4583529,2.51482353 10.2174118,2.41694118 9.94635294,2.32658824 L9.56235294,0.700235294 C9.472,0.263529412 9.13317647,0 8.68894118,0 L7.31105882,0 C6.85929412,0 6.528,0.263529412 6.43011765,0.707764706 L6.05364706,2.31152941 C5.79011765,2.40188235 5.53411765,2.49976471 5.30823529,2.61270588 L3.89270588,1.74682353 C3.51623529,1.536 3.12470588,1.58117647 2.80847059,1.87482353 L1.82964706,2.83858824 C1.51341176,3.15482353 1.48329412,3.57647059 1.72423529,3.95294118 L2.57505882,5.36847059 C2.48470588,5.57176471 2.37929412,5.81270588 2.29647059,6.08376471 L0.700235294,6.46776471 C0.263529412,6.56564706 0,6.89694118 0,7.34117647 L0,8.69647059 C0,9.14070588 0.263529412,9.472 0.700235294,9.56988235 L2.31152941,9.95388235 C2.38682353,10.1872941 2.48470588,10.4282353 2.59011765,10.6616471 L1.73929412,12.0470588 C1.49082353,12.416 1.536,12.8677647 1.84470588,13.1764706 L2.80847059,14.1402353 C3.11717647,14.4489412 3.55388235,14.4865882 3.92282353,14.2531765 L5.31576471,13.3948235 C5.54164706,13.5002353 5.79011765,13.5981176 6.05364706,13.6884706 L6.43011765,15.2922353 C6.528,15.7289412 6.85929412,15.9924706 7.31105882,15.9924706 Z M8.00376471,10.6315294 C6.55058824,10.6315294 5.36094118,9.44188235 5.36094118,7.98870588 C5.36094118,6.55058824 6.55058824,5.36094118 8.00376471,5.36094118 C9.44941176,5.36094118 10.6315294,6.55058824 10.6315294,7.98870588 C10.6315294,9.44188235 9.44941176,10.6315294 8.00376471,10.6315294 Z"/>
        </g>
      </g>
    </symbol>
    <symbol viewBox="0 0 16 16" version="1.1" id="icon--info">
      <g stroke="none" stroke-width="1" fill="none" fill-rule="evenodd">
        <g fill="currentColor" fill-rule="nonzero">
          <path d="M8,16 C12.375605,16 16,12.3833495 16,8 C16,3.62439497 12.375605,0 7.99225557,0 C3.61665053,0 0,3.62439497 0,8 C0,12.3833495 3.62439497,16 8,16 Z M8,14.42788 C4.4375605,14.42788 1.57986447,11.5624395 1.57986447,8 C1.57986447,4.4375605 4.42981607,1.57986447 7.99225557,1.57986447 C11.5546951,1.57986447 14.4201355,4.4375605 14.42788,8 C14.42788,11.5624395 11.5624395,14.42788 8,14.42788 Z M7.9535334,5.36689255 C8.54211036,5.36689255 9.00677638,4.89448209 9.00677638,4.31364956 C9.00677638,3.71732817 8.54211036,3.24491772 7.9535334,3.24491772 C7.37270087,3.24491772 6.90029042,3.71732817 6.90029042,4.31364956 C6.90029042,4.89448209 7.37270087,5.36689255 7.9535334,5.36689255 Z M6.62923524,12.2129719 L9.77347531,12.2129719 C10.1219748,12.2129719 10.39303,11.96515 10.39303,11.6166505 C10.39303,11.2836399 10.1219748,11.0203291 9.77347531,11.0203291 L8.90609874,11.0203291 L8.90609874,7.34172314 C8.90609874,6.87705712 8.67376573,6.5750242 8.24007744,6.5750242 L6.76863504,6.5750242 C6.42787996,6.5750242 6.14908035,6.83833495 6.14908035,7.1713456 C6.14908035,7.51984511 6.42787996,7.76766699 6.76863504,7.76766699 L7.55856728,7.76766699 L7.55856728,11.0203291 L6.62923524,11.0203291 C6.28848015,11.0203291 6.01742498,11.2836399 6.01742498,11.6166505 C6.01742498,11.96515 6.28848015,12.2129719 6.62923524,12.2129719 Z"/>
        </g>
      </g>
    </symbol>
    <symbol viewBox="0 0 16 16" version="1.1" id="icon--lens">
      <g stroke="none" stroke-width="1" fill="none" fill-rule="evenodd">
        <g fill="currentColor" fill-rule="nonzero">
          <path d="M8.0703125,16.140625 C12.484375,16.140625 16.140625,12.4921875 16.140625,8.0703125 C16.140625,3.65625 12.484375,0 8.0625,0 C3.6484375,0 0,3.65625 0,8.0703125 C0,12.4921875 3.65625,16.140625 8.0703125,16.140625 Z M4.8203125,6.09375 C4.6796875,6.3203125 4.5703125,6.5546875 4.4765625,6.8046875 L2.9296875,4.1171875 C3.984375,2.7421875 5.578125,1.8046875 7.40625,1.625 L4.8203125,6.09375 Z M8.1015625,4.25 C8.09375,4.25 8.078125,4.25 8.0703125,4.25 C7.828125,4.25 7.59375,4.2734375 7.3671875,4.3203125 L8.9140625,1.640625 C10.7265625,1.875 12.296875,2.8515625 13.3203125,4.2578125 L8.1015625,4.25 Z M1.59375,8.0703125 C1.59375,7.125 1.796875,6.21875 2.15625,5.4140625 L4.6640625,9.765625 C4.8125,10.0546875 4.9921875,10.3203125 5.2109375,10.5625 L2.0859375,10.5625 C1.7734375,9.796875 1.59375,8.953125 1.59375,8.0703125 Z M14.5546875,8.0703125 C14.5546875,9.0234375 14.3515625,9.921875 13.9921875,10.734375 L11.4765625,6.375 C11.328125,6.0859375 11.1484375,5.8125 10.9375,5.5703125 L14.0546875,5.5703125 C14.375,6.3359375 14.546875,7.1796875 14.5546875,8.0703125 Z M8.0703125,10.5625 C7.109375,10.5625 6.2578125,9.9921875 5.84375,9.171875 L5.8359375,9.15625 C5.671875,8.828125 5.578125,8.453125 5.578125,8.0703125 C5.578125,6.703125 6.7109375,5.5703125 8.0703125,5.5703125 C9.0390625,5.5703125 9.890625,6.140625 10.3046875,6.96875 L10.296875,6.96875 L10.3125,6.9921875 C10.4765625,7.3203125 10.5625,7.6875 10.5625,8.0703125 C10.5625,8.546875 10.421875,9 10.1875,9.3828125 L10.1796875,9.3828125 C9.734375,10.09375 8.953125,10.5625 8.0703125,10.5625 Z M11.3203125,10.0390625 C11.4609375,9.8203125 11.5703125,9.578125 11.6640625,9.328125 L13.21875,12.0234375 C12.1640625,13.3984375 10.5625,14.3359375 8.7265625,14.515625 L11.3203125,10.0390625 Z M8.0703125,11.8828125 C8.3125,11.8828125 8.546875,11.859375 8.78125,11.8125 L7.2265625,14.5 C5.40625,14.265625 3.8359375,13.2890625 2.8203125,11.875 L8.0390625,11.8828125 C8.046875,11.8828125 8.0625,11.8828125 8.0703125,11.8828125 Z"/>
        </g>
      </g>
    </symbol>
    <symbol viewBox="0 0 16 16" version="1.1" id="icon--photo">
      <g stroke="none" stroke-width="1" fill="none" fill-rule="evenodd">
        <g transform="translate(0.000000, 1.000000)" fill="currentColor" fill-rule="nonzero">
          <path d="M1.07554746,9.61275204 C1.30420367,10.9167104 2.09523056,11.4667213 3.41772863,11.2380651 L3.51660699,11.2195254 L3.51660699,11.2566048 C3.51660699,12.5791029 4.20257561,13.2588916 5.54361338,13.2588916 L13.9729936,13.2588916 C15.3078515,13.2588916 16,12.572923 16,11.2566048 L16,5.38570213 C16,4.06320406 15.3078515,3.37723543 13.9729936,3.37723543 L12.5948765,3.37723543 L12.2920615,1.67158371 C12.0634053,0.373805231 11.2661985,-0.182385547 9.94988032,0.0524505595 L1.69971711,1.50472648 C0.383398939,1.73956259 -0.178971736,2.53676937 0.0496844726,3.83454785 L1.07554746,9.61275204 Z M2.2435481,9.30375716 L1.26094439,3.72948959 C1.15588613,3.13003953 1.41544183,2.78396527 1.9778125,2.68508691 L10.0858381,1.25753058 C10.6482087,1.15865222 11.0128227,1.39348832 11.1240608,1.98675849 L11.3712567,3.37723543 L5.54361338,3.37723543 C4.20257561,3.37723543 3.51660699,4.06320406 3.51660699,5.38570213 L3.51660699,9.98972579 L3.27559098,10.0329851 C2.71322031,10.1318634 2.34860635,9.89702733 2.2435481,9.30375716 Z M4.72168701,5.49076039 C4.72168701,4.89131033 5.03686178,4.58849535 5.61159225,4.58849535 L13.9050147,4.58849535 C14.4735653,4.58849535 14.79492,4.89131033 14.79492,5.49076039 L14.79492,10.2678212 L12.5330775,8.14193643 C12.2982414,7.91946012 12.0139661,7.81440186 11.717331,7.81440186 C11.4268758,7.81440186 11.1549603,7.91328022 10.9077644,8.13575653 L8.47288481,10.2925408 L7.50882079,9.41499532 C7.28016458,9.2048788 7.03296868,9.11218034 6.77341299,9.11218034 C6.53857688,9.11218034 6.30992067,9.2110587 6.08126446,9.40881542 L4.72168701,10.5953557 L4.72168701,5.49076039 Z M8.06501157,8.27171428 C8.78187968,8.27171428 9.36279005,7.67844411 9.36279005,6.961576 C9.36279005,6.25706768 8.78187968,5.66379752 8.06501157,5.66379752 C7.34814346,5.66379752 6.76723309,6.25706768 6.76723309,6.961576 C6.76723309,7.67844411 7.34814346,8.27171428 8.06501157,8.27171428 Z"/>
        </g>
      </g>
    </symbol>
    <symbol viewBox="0 0 16 16" version="1.1" id="icon--pin">
      <g stroke="none" stroke-width="1" fill="none" fill-rule="evenodd">
        <g transform="translate(1.000000, 0.000000)" fill="currentColor" fill-rule="nonzero">
          <path d="M4.26719446,2.83571429 C4.26719446,4.13571429 5.11232063,5.23571429 6.27610094,5.56428571 L6.27610094,10.0642857 C6.27610094,12.0071429 6.69866403,13.2071429 7.00346363,13.2071429 C7.30133597,13.2071429 7.7169718,12.0142857 7.7169718,10.0642857 L7.7169718,5.56428571 C8.88767937,5.24285714 9.73973281,4.13571429 9.73973281,2.83571429 C9.73973281,1.27857143 8.52053439,0 7.00346363,0 C5.47946561,0 4.26719446,1.27857143 4.26719446,2.83571429 Z M6.22761009,2.99285714 C5.72884711,2.99285714 5.28550223,2.54285714 5.28550223,2.02142857 C5.28550223,1.5 5.72884711,1.05714286 6.22761009,1.05714286 C6.74022761,1.05714286 7.1627907,1.5 7.1627907,2.02142857 C7.1627907,2.54285714 6.74022761,2.99285714 6.22761009,2.99285714 Z M6.99653637,16 C11.3884216,16 14,14.4785714 14,12.7357143 C14,10.8142857 11.1390401,9.58571429 8.89460663,9.49285714 L8.89460663,10.75 C10.4186047,10.8142857 12.4275111,11.5571429 12.4275111,12.5928571 C12.4275111,13.8214286 10.1415141,14.6714286 6.99653637,14.6714286 C3.85155863,14.6714286 1.57248887,13.8285714 1.57248887,12.5928571 C1.57248887,11.5571429 3.58139535,10.8142857 5.09846611,10.75 L5.09846611,9.49285714 C2.86095992,9.58571429 0,10.8142857 0,12.7357143 C0,14.4785714 2.61157843,16 6.99653637,16 Z"/>
        </g>
      </g>
    </symbol>
    <symbol viewBox="0 0 16 16" version="1.1" id="icon--plus_square">
      <g stroke="none" stroke-width="1" fill="none" fill-rule="evenodd">
        <g fill="currentColor" fill-rule="nonzero">
          <path d="M2.81092662,16 L13.1890734,16 C15.0401714,16 16,15.0401714 16,13.2147831 L16,2.78521693 C16,0.951258704 15.0401714,0 13.1890734,0 L2.81092662,0 C0.959828602,0 0,0.951258704 0,2.78521693 L0,13.2147831 C0,15.0487413 0.959828602,16 2.81092662,16 Z M3.83074451,7.99571505 C3.83074451,7.49866095 4.18211034,7.14729513 4.67916443,7.14729513 L7.18157472,7.14729513 L7.18157472,4.63631494 C7.18157472,4.14783074 7.52437065,3.78789502 8.01285485,3.78789502 C8.50990894,3.78789502 8.86127477,4.14783074 8.86127477,4.63631494 L8.86127477,7.14729513 L11.372255,7.14729513 C11.8607392,7.14729513 12.212105,7.49866095 12.212105,7.99571505 C12.212105,8.48419925 11.8607392,8.82699518 11.372255,8.82699518 L8.86127477,8.82699518 L8.86127477,11.3379754 C8.86127477,11.8264596 8.50990894,12.1778254 8.01285485,12.1778254 C7.52437065,12.1778254 7.18157472,11.8264596 7.18157472,11.3379754 L7.18157472,8.82699518 L4.67916443,8.82699518 C4.18211034,8.82699518 3.83074451,8.48419925 3.83074451,7.99571505 Z"/>
        </g>
      </g>
    </symbol>
    <symbol viewBox="0 0 16 16" version="1.1" id="icon--trash">
      <g stroke="none" stroke-width="1" fill="none" fill-rule="evenodd">
        <g transform="translate(1.000000, 0.000000)" fill="currentColor" fill-rule="nonzero">
          <path d="M3.68801653,16 L10.3192149,16 C11.3533058,16 12.0475207,15.3318366 12.0981405,14.3044454 L12.5971074,3.85810507 L13.464876,3.85810507 C13.7613636,3.85810507 14,3.60664571 14,3.31207903 C14,3.01751235 13.7613636,2.77323754 13.464876,2.77323754 L10.160124,2.77323754 L10.160124,1.6740009 C10.160124,0.632240683 9.4803719,0 8.36673554,0 L5.61880165,0 C4.50516529,0 3.82541322,0.632240683 3.82541322,1.6740009 L3.82541322,2.77323754 L0.542355372,2.77323754 C0.253099174,2.77323754 0,3.01751235 0,3.31207903 C0,3.61383026 0.253099174,3.85810507 0.542355372,3.85810507 L1.41012397,3.85810507 L1.90909091,14.31163 C1.95971074,15.3390211 2.63946281,16 3.68801653,16 Z M4.97520661,1.74584643 C4.97520661,1.3363269 5.26446281,1.07049843 5.69834711,1.07049843 L8.28719008,1.07049843 C8.72107438,1.07049843 9.01033058,1.3363269 9.01033058,1.74584643 L9.01033058,2.77323754 L4.97520661,2.77323754 L4.97520661,1.74584643 Z M3.7892562,14.9151325 C3.37706612,14.9151325 3.0661157,14.6061967 3.04442149,14.182308 L2.53822314,3.85810507 L11.4328512,3.85810507 L10.9555785,14.182308 C10.9411157,14.6133812 10.6301653,14.9151325 10.2035124,14.9151325 L3.7892562,14.9151325 Z M4.85950413,13.6865739 C5.13429752,13.6865739 5.31508264,13.5141446 5.30785124,13.2626852 L5.08367769,5.57521329 C5.07644628,5.32375393 4.89566116,5.15850921 4.63533058,5.15850921 C4.36053719,5.15850921 4.17975207,5.33093848 4.18698347,5.58239784 L4.40392562,13.2626852 C4.41115702,13.5213291 4.59194215,13.6865739 4.85950413,13.6865739 Z M7,13.6865739 C7.27479339,13.6865739 7.47004132,13.5141446 7.47004132,13.2626852 L7.47004132,5.58239784 C7.47004132,5.33093848 7.27479339,5.15850921 7,5.15850921 C6.72520661,5.15850921 6.53719008,5.33093848 6.53719008,5.58239784 L6.53719008,13.2626852 C6.53719008,13.5141446 6.72520661,13.6865739 7,13.6865739 Z M9.14772727,13.6865739 C9.40805785,13.6865739 9.58884298,13.5213291 9.59607438,13.2626852 L9.81301653,5.58239784 C9.82024793,5.33093848 9.63946281,5.15850921 9.36466942,5.15850921 C9.10433884,5.15850921 8.92355372,5.32375393 8.91632231,5.58239784 L8.69938017,13.2626852 C8.69214876,13.5141446 8.87293388,13.6865739 9.14772727,13.6865739 Z"/>
        </g>
      </g>
    </symbol>
    <symbol viewBox="0 0 16 16" version="1.1" id="icon--warning">
      <g stroke="none" stroke-width="1" fill="none" fill-rule="evenodd">
        <g transform="translate(0.000000, 1.000000)" fill="currentColor" fill-rule="nonzero">
          <path d="M1.95666827,14.9333333 L14.0433317,14.9333333 C15.2373616,14.9333333 16,14.0434222 16,12.9505489 C16,12.6226869 15.9152624,12.2870186 15.7457872,11.9747691 L9.69090034,1.01481094 C9.32113625,0.335668235 8.66634569,0 8.00385171,0 C7.34135773,0 6.67886375,0.343474473 6.30909966,1.01481094 L0.261916225,11.9825754 C0.0924410207,12.2948249 0,12.6226869 0,12.9505489 C0,14.0434222 0.770341839,14.9333333 1.95666827,14.9333333 Z M8.01155513,9.58606029 C7.55705344,9.58606029 7.30284064,9.32845443 7.2874338,8.86788639 L7.17958594,4.93354243 C7.1641791,4.45736191 7.50312951,4.12169367 8.00385171,4.12169367 C8.48916707,4.12169367 8.84352431,4.45736191 8.82811748,4.93354243 L8.7125662,8.86008015 C8.69715936,9.33626067 8.44294656,9.58606029 8.01155513,9.58606029 Z M8.01155513,12.2714062 C7.4954261,12.2714062 7.06403467,11.8967067 7.06403467,11.381495 C7.06403467,10.8740896 7.48772268,10.4915839 8.01155513,10.4915839 C8.52768416,10.4915839 8.95137217,10.8662833 8.95137217,11.381495 C8.95137217,11.8967067 8.51998074,12.2714062 8.01155513,12.2714062 Z"/>
        </g>
      </g>
    </symbol>
  </defs>
</svg>
