<svg xmlns="http://www.w3.org/2000/svg" style="display: none">
  <defs>
    <symbol viewBox="0 0 16 16" version="1.1" id="icon--bubble_exclamation">
      <path d="M4.327 16c.296 0 .527-.142.881-.469l2.658-2.358h4.739C14.779 13.18 16 11.952 16 9.843V4.33C16 2.221 14.78 1 12.605 1h-9.21C1.221 1 0 2.222 0 4.331v5.511c0 2.11 1.25 3.331 3.344 3.331h.29v2.06c0 .462.26.767.693.767Zm3.677-7.692c-.42 0-.658-.227-.672-.653l-.109-3.58c-.007-.433.311-.738.773-.738.463 0 .795.312.78.745l-.108 3.573c-.014.426-.253.653-.664.653Zm0 2.45c-.477 0-.882-.347-.882-.81 0-.468.398-.816.882-.816.49 0 .888.348.888.817s-.404.81-.888.81Z" fill="currentColor" fill-rule="nonzero"/>
    </symbol>
    <symbol viewBox="0 0 16 16" version="1.1" id="icon--calendar">
      <path d="M2.563 15.586h10.75c1.687 0 2.562-.875 2.562-2.54V3.54C15.875 1.867 15 1 13.312 1H2.563C.875 1 0 1.867 0 3.54v9.507c0 1.672.875 2.539 2.563 2.539Zm-.024-1.531c-.648 0-1.008-.344-1.008-1.024V5.812c0-.687.36-1.023 1.008-1.023H13.32c.657 0 1.024.336 1.024 1.024v7.218c0 .68-.367 1.024-1.024 1.024H2.54ZM6.43 7.5h.462c.28 0 .375-.086.375-.367V6.68c0-.282-.094-.367-.375-.367H6.43c-.274 0-.367.085-.367.367v.453c0 .281.093.367.367.367Zm2.563 0h.453c.282 0 .375-.086.375-.367V6.68c0-.282-.093-.367-.375-.367h-.453c-.281 0-.375.085-.375.367v.453c0 .281.094.367.375.367Zm2.555 0H12c.281 0 .375-.086.375-.367V6.68c0-.282-.094-.367-.375-.367h-.453c-.281 0-.375.085-.375.367v.453c0 .281.094.367.375.367Zm-7.672 2.516h.46c.282 0 .376-.086.376-.368v-.453c0-.28-.094-.367-.375-.367h-.461c-.273 0-.367.086-.367.367v.453c0 .282.094.368.367.368Zm2.555 0h.46c.282 0 .376-.086.376-.368v-.453c0-.28-.094-.367-.375-.367H6.43c-.274 0-.367.086-.367.367v.453c0 .282.093.368.367.368Zm2.562 0h.453c.282 0 .375-.086.375-.368v-.453c0-.28-.093-.367-.375-.367h-.453c-.281 0-.375.086-.375.367v.453c0 .282.094.368.375.368Zm2.555 0H12c.281 0 .375-.086.375-.368v-.453c0-.28-.094-.367-.375-.367h-.453c-.281 0-.375.086-.375.367v.453c0 .282.094.368.375.368ZM3.875 12.53h.46c.282 0 .376-.086.376-.367v-.453c0-.281-.094-.367-.375-.367h-.461c-.273 0-.367.086-.367.367v.453c0 .281.094.367.367.367Zm2.555 0h.46c.282 0 .376-.086.376-.367v-.453c0-.281-.094-.367-.375-.367H6.43c-.274 0-.367.086-.367.367v.453c0 .281.093.367.367.367Zm2.562 0h.453c.282 0 .375-.086.375-.367v-.453c0-.281-.093-.367-.375-.367h-.453c-.281 0-.375.086-.375.367v.453c0 .281.094.367.375.367Z" fill="currentColor" fill-rule="nonzero"/>
    </symbol>
    <symbol viewBox="0 0 16 16" version="1.1" id="icon--camera">
      <path d="M2.124 14.503h11.752c1.399 0 2.124-.725 2.124-2.104V5.607c0-1.38-.725-2.105-2.124-2.105h-1.774c-.505 0-.667-.084-.978-.414l-.518-.557C10.27 2.181 9.933 2 9.272 2H6.695c-.66 0-.997.181-1.334.531l-.518.557c-.304.324-.472.414-.977.414H2.124C.725 3.502 0 4.227 0 5.607v6.792c0 1.38.725 2.104 2.124 2.104Zm.078-1.269c-.596 0-.933-.317-.933-.945V5.717c0-.628.337-.946.933-.946h2.033c.576 0 .88-.097 1.204-.46l.499-.543c.362-.395.557-.499 1.126-.499h1.84c.57 0 .763.104 1.126.492l.499.55c.323.357.628.46 1.204.46h2.072c.596 0 .926.318.926.946v6.572c0 .628-.33.945-.926.945H2.202Zm5.801-.86A3.488 3.488 0 0 0 11.5 8.87a3.489 3.489 0 0 0-3.497-3.51 3.489 3.489 0 0 0-3.496 3.51 3.483 3.483 0 0 0 3.496 3.503Zm3.717-5.835c0 .473.382.842.848.835a.841.841 0 0 0 .835-.835.855.855 0 0 0-.835-.835.857.857 0 0 0-.848.835Zm-3.717 4.675A2.34 2.34 0 0 1 5.66 8.87a2.34 2.34 0 0 1 2.344-2.35 2.34 2.34 0 0 1 2.344 2.35 2.34 2.34 0 0 1-2.344 2.344Z" fill="currentColor" fill-rule="nonzero"/>
    </symbol>
    <symbol viewBox="0 0 16 16" version="1.1" id="icon--close">
      <path d="M2.81 16h10.38c1.85 0 2.81-.96 2.81-2.785V2.785C16 .951 15.04 0 13.19 0H2.81C.96 0 0 .951 0 2.785v10.43C0 15.049.96 16 2.81 16Zm2.4-4.38a.803.803 0 0 1-.805-.822c0-.206.086-.403.24-.557l2.237-2.245-2.237-2.237a.792.792 0 0 1-.24-.566c0-.454.351-.797.805-.797.232 0 .412.077.566.232l2.245 2.236 2.263-2.245a.764.764 0 0 1 .574-.24c.446 0 .797.352.797.806a.763.763 0 0 1-.231.565L9.178 7.996l2.237 2.236a.81.81 0 0 1-.574 1.388.788.788 0 0 1-.583-.24L8.021 9.145l-2.22 2.237a.836.836 0 0 1-.59.24Z" fill="currentColor" fill-rule="nonzero"/>
    </symbol>
    <symbol viewBox="0 0 16 16" version="1.1" id="icon--gear">
      <path d="M7.311 15.992H8.69c.444 0 .783-.263.873-.7l.384-1.604a8.1 8.1 0 0 0 .73-.293l1.401.858c.37.234.798.196 1.107-.113l.964-.964a.87.87 0 0 0 .105-1.129l-.85-1.385c.105-.234.21-.475.285-.708L15.3 9.57c.436-.098.7-.43.7-.874V7.341c0-.444-.264-.775-.7-.873l-1.596-.384a7.836 7.836 0 0 0-.287-.716l.851-1.415c.241-.377.211-.798-.105-1.114l-.979-.964c-.316-.286-.708-.339-1.084-.128l-1.423.873a6.137 6.137 0 0 0-.73-.293L9.561.7C9.472.264 9.133 0 8.69 0H7.31c-.452 0-.783.264-.88.708l-.377 1.604a6.15 6.15 0 0 0-.746.3l-1.415-.865c-.377-.211-.768-.166-1.085.128l-.978.964c-.317.316-.347.737-.106 1.114l.851 1.415c-.09.204-.196.445-.279.716L.7 6.468c-.436.098-.7.429-.7.873v1.355c0 .445.264.776.7.874l1.612.384c.075.233.173.474.278.708l-.85 1.385a.87.87 0 0 0 .105 1.13l.963.963c.31.309.746.347 1.115.113l1.393-.858c.226.105.474.203.738.293l.376 1.604c.098.437.43.7.881.7Zm.693-5.36A2.651 2.651 0 0 1 5.36 7.989c0-1.438 1.19-2.628 2.643-2.628a2.64 2.64 0 0 1 2.628 2.628c0 1.453-1.183 2.643-2.628 2.643Z" fill="currentColor" fill-rule="nonzero"/>
    </symbol>
    <symbol id="icon--heart">
      <path d="M8 16c.206 0 .499-.152.737-.305C13.164 12.81 16 9.426 16 5.995 16 3.052 13.996 1 11.47 1 9.892 1 8.712 1.882 8 3.205 7.303 1.89 6.115 1 4.539 1 2.012 1 0 3.052 0 5.995c0 3.431 2.836 6.814 7.263 9.7.246.153.539.305.737.305Z" fill="currentColor"/>
    </symbol>
    <symbol id="icon--heart_outline">
      <path d="M0 5.995c0 3.431 2.836 6.814 7.263 9.7.246.153.539.305.737.305.206 0 .499-.152.737-.305C13.164 12.81 16 9.426 16 5.995 16 3.052 13.996 1 11.398 1 9.893 1 8.713 1.706 8 2.764 7.303 1.714 6.115 1 4.602 1 2.012 1 0 3.052 0 5.995Zm1.6 0c0-2.037 1.315-3.408 3.09-3.408 1.433 0 2.233.882 2.732 1.652.222.32.372.425.578.425.214 0 .34-.112.578-.425.53-.762 1.315-1.652 2.74-1.652 1.775 0 3.09 1.371 3.09 3.408 0 2.838-2.923 5.972-6.258 8.217-.07.048-.118.08-.15.08s-.08-.032-.15-.08C4.515 11.967 1.6 8.832 1.6 5.995Z" fill="currentColor"/>
    </symbol>
    <symbol viewBox="0 0 16 16" version="1.1" id="icon--info">
      <path d="M8 16c4.376 0 8-3.617 8-8 0-4.376-3.624-8-8.008-8C3.617 0 0 3.624 0 8c0 4.383 3.624 8 8 8Zm0-1.572A6.405 6.405 0 0 1 1.58 8c0-3.562 2.85-6.42 6.412-6.42A6.417 6.417 0 0 1 14.428 8 6.412 6.412 0 0 1 8 14.428Zm-.046-9.061a1.05 1.05 0 0 0 1.053-1.053 1.053 1.053 0 1 0-2.107 0c0 .58.473 1.053 1.054 1.053Zm-1.325 6.846h3.144c.349 0 .62-.248.62-.596a.602.602 0 0 0-.62-.597h-.867V7.342c0-.465-.232-.767-.666-.767H6.77a.607.607 0 0 0-.62.596c0 .349.279.597.62.597h.79v3.252h-.93a.6.6 0 0 0-.612.597c0 .348.271.596.612.596Z" fill="currentColor" fill-rule="nonzero"/>
    </symbol>
    <symbol viewBox="0 0 16 16" version="1.1" id="icon--lens">
      <path d="M8.07 16.14c4.414 0 8.07-3.648 8.07-8.07C16.14 3.656 12.485 0 8.063 0 3.649 0 0 3.656 0 8.07c0 4.422 3.656 8.07 8.07 8.07ZM4.82 6.095c-.14.226-.25.46-.343.71L2.93 4.118a6.425 6.425 0 0 1 4.476-2.492L4.82 6.094ZM8.102 4.25H8.07c-.242 0-.476.023-.703.07l1.547-2.68a6.47 6.47 0 0 1 4.406 2.618L8.102 4.25ZM1.594 8.07c0-.945.203-1.851.562-2.656l2.508 4.352a3.7 3.7 0 0 0 .547.796H2.086a6.593 6.593 0 0 1-.492-2.492Zm12.96 0c0 .953-.202 1.852-.562 2.664l-2.515-4.359a4.023 4.023 0 0 0-.54-.805h3.118c.32.766.492 1.61.5 2.5ZM8.07 10.562c-.96 0-1.812-.57-2.226-1.39l-.008-.016a2.443 2.443 0 0 1-.258-1.086c0-1.367 1.133-2.5 2.492-2.5.97 0 1.82.57 2.235 1.399h-.008l.015.023c.165.328.25.696.25 1.078 0 .477-.14.93-.374 1.313h-.008a2.49 2.49 0 0 1-2.11 1.18Zm3.25-.523c.14-.219.25-.46.344-.71l1.555 2.694a6.442 6.442 0 0 1-4.492 2.493l2.593-4.477Zm-3.25 1.844c.242 0 .477-.024.711-.07L7.227 14.5a6.418 6.418 0 0 1-4.407-2.625l5.22.008h.03Z" fill="currentColor" fill-rule="nonzero"/>
    </symbol>
    <symbol viewBox="0 0 16 16" version="1.1" id="icon--photo">
      <path d="M1.076 10.613c.228 1.304 1.02 1.854 2.342 1.625l.099-.018v.037c0 1.322.686 2.002 2.027 2.002h8.429c1.335 0 2.027-.686 2.027-2.002V6.386c0-1.323-.692-2.009-2.027-2.009h-1.378l-.303-1.705c-.229-1.298-1.026-1.854-2.342-1.62L1.7 2.505C.383 2.74-.18 3.537.05 4.835l1.026 5.778Zm1.168-.31L1.26 4.73c-.105-.599.154-.945.717-1.044l8.108-1.427c.562-.1.927.135 1.038.729l.247 1.39H5.544c-1.341 0-2.027.686-2.027 2.009v4.604l-.241.043c-.563.099-.927-.136-1.032-.73Zm2.478-3.812c0-.6.315-.903.89-.903h8.293c.569 0 .89.303.89.903v4.777l-2.262-2.126a1.176 1.176 0 0 0-1.625-.006l-2.435 2.157-.964-.878a1.06 1.06 0 0 0-.736-.303c-.234 0-.463.1-.692.297l-1.36 1.186V6.491Zm3.343 2.78c.717 0 1.298-.593 1.298-1.31 0-.704-.581-1.297-1.298-1.297-.717 0-1.298.593-1.298 1.298 0 .716.581 1.31 1.298 1.31Z" fill="currentColor" fill-rule="nonzero"/>
    </symbol>
    <symbol viewBox="0 0 16 16" version="1.1" id="icon--pin">
      <path d="M5.267 2.836c0 1.3.845 2.4 2.01 2.728v4.5c0 1.943.422 3.143.726 3.143.298 0 .714-1.193.714-3.143v-4.5c1.17-.321 2.023-1.428 2.023-2.728C10.74 1.279 9.52 0 8.003 0 6.48 0 5.267 1.279 5.267 2.836Zm1.96.157c-.498 0-.941-.45-.941-.972 0-.521.443-.964.942-.964.512 0 .935.443.935.964 0 .522-.423.972-.935.972ZM7.998 16C12.388 16 15 14.479 15 12.736c0-1.922-2.861-3.15-5.105-3.243v1.257c1.524.064 3.533.807 3.533 1.843 0 1.228-2.286 2.078-5.431 2.078s-5.425-.842-5.425-2.078c0-1.036 2.01-1.779 3.526-1.843V9.493C3.861 9.586 1 10.814 1 12.736 1 14.479 3.612 16 7.997 16Z" fill="currentColor" fill-rule="nonzero"/>
    </symbol>
    <symbol viewBox="0 0 16 16" version="1.1" id="icon--plus_square">
      <path d="M2.81 16h10.38c1.85 0 2.81-.96 2.81-2.785V2.785C16 .951 15.04 0 13.19 0H2.81C.96 0 0 .951 0 2.785v10.43C0 15.049.96 16 2.81 16Zm1.02-8.004c0-.497.352-.849.85-.849h2.502v-2.51c0-.49.342-.85.83-.85.498 0 .85.36.85.85v2.51h2.51c.489 0 .84.352.84.849 0 .488-.351.831-.84.831h-2.51v2.511c0 .488-.352.84-.85.84-.488 0-.83-.352-.83-.84V8.827H4.679c-.497 0-.848-.343-.848-.831Z" fill="currentColor" fill-rule="nonzero"/>
    </symbol>
    <symbol viewBox="0 0 16 16" version="1.1" id="icon--trash">
      <path d="M4.688 16h6.631c1.034 0 1.729-.668 1.78-1.696l.498-10.446h.868A.545.545 0 0 0 15 3.312a.538.538 0 0 0-.535-.539H11.16V1.674C11.16.632 10.48 0 9.367 0H6.619C5.505 0 4.825.632 4.825 1.674v1.1H1.542A.55.55 0 0 0 1 3.311a.55.55 0 0 0 .542.546h.868l.5 10.454C2.96 15.339 3.64 16 4.687 16ZM5.975 1.746c0-.41.29-.676.723-.676h2.59c.433 0 .722.266.722.676v1.027H5.975V1.746ZM4.79 14.916c-.412 0-.723-.31-.745-.734L3.538 3.858h8.895l-.477 10.324c-.015.431-.326.733-.752.733H4.789Zm1.07-1.23c.275 0 .456-.172.449-.423l-.224-7.688c-.008-.251-.188-.416-.449-.416-.274 0-.455.172-.448.423l.217 7.68c.007.26.188.425.456.425Zm2.141 0c.275 0 .47-.172.47-.423v-7.68c0-.252-.195-.424-.47-.424-.275 0-.463.172-.463.423v7.68c0 .252.188.425.463.425Zm2.148 0c.26 0 .44-.165.448-.423l.217-7.68c.007-.252-.174-.424-.448-.424-.26 0-.441.165-.449.423l-.217 7.68c-.007.252.174.425.449.425Z" fill="currentColor" fill-rule="nonzero"/>
    </symbol>
    <symbol viewBox="0 0 16 16" version="1.1" id="icon--warning">
      <path d="M1.957 15.933h12.086c1.194 0 1.957-.89 1.957-1.982 0-.328-.085-.664-.254-.976L9.69 2.015A1.898 1.898 0 0 0 8.004 1c-.663 0-1.325.343-1.695 1.015L.262 12.983A2.03 2.03 0 0 0 0 13.95c0 1.092.77 1.982 1.957 1.982Zm6.055-5.347c-.455 0-.71-.258-.725-.718L7.18 5.934c-.016-.477.323-.812.824-.812.485 0 .84.335.824.812L8.713 9.86c-.016.476-.27.726-.701.726Zm0 2.685c-.517 0-.948-.374-.948-.89 0-.507.424-.89.948-.89.516 0 .94.375.94.89 0 .516-.432.89-.94.89Z" fill="currentColor" fill-rule="nonzero"/>
    </symbol>
  </defs>
</svg>
