<svg xmlns="http://www.w3.org/2000/svg" style="display: none">
  <defs>
    <symbol viewBox="0 0 16 16" version="1.1" id="icon--photo">
      <g stroke="none" stroke-width="1" fill="none" fill-rule="evenodd">
        <g transform="translate(0.000000, 1.000000)" fill="currentColor" fill-rule="nonzero">
          <path d="M1.07554746,9.61275204 C1.30420367,10.9167104 2.09523056,11.4667213 3.41772863,11.2380651 L3.51660699,11.2195254 L3.51660699,11.2566048 C3.51660699,12.5791029 4.20257561,13.2588916 5.54361338,13.2588916 L13.9729936,13.2588916 C15.3078515,13.2588916 16,12.572923 16,11.2566048 L16,5.38570213 C16,4.06320406 15.3078515,3.37723543 13.9729936,3.37723543 L12.5948765,3.37723543 L12.2920615,1.67158371 C12.0634053,0.373805231 11.2661985,-0.182385547 9.94988032,0.0524505595 L1.69971711,1.50472648 C0.383398939,1.73956259 -0.178971736,2.53676937 0.0496844726,3.83454785 L1.07554746,9.61275204 Z M2.2435481,9.30375716 L1.26094439,3.72948959 C1.15588613,3.13003953 1.41544183,2.78396527 1.9778125,2.68508691 L10.0858381,1.25753058 C10.6482087,1.15865222 11.0128227,1.39348832 11.1240608,1.98675849 L11.3712567,3.37723543 L5.54361338,3.37723543 C4.20257561,3.37723543 3.51660699,4.06320406 3.51660699,5.38570213 L3.51660699,9.98972579 L3.27559098,10.0329851 C2.71322031,10.1318634 2.34860635,9.89702733 2.2435481,9.30375716 Z M4.72168701,5.49076039 C4.72168701,4.89131033 5.03686178,4.58849535 5.61159225,4.58849535 L13.9050147,4.58849535 C14.4735653,4.58849535 14.79492,4.89131033 14.79492,5.49076039 L14.79492,10.2678212 L12.5330775,8.14193643 C12.2982414,7.91946012 12.0139661,7.81440186 11.717331,7.81440186 C11.4268758,7.81440186 11.1549603,7.91328022 10.9077644,8.13575653 L8.47288481,10.2925408 L7.50882079,9.41499532 C7.28016458,9.2048788 7.03296868,9.11218034 6.77341299,9.11218034 C6.53857688,9.11218034 6.30992067,9.2110587 6.08126446,9.40881542 L4.72168701,10.5953557 L4.72168701,5.49076039 Z M8.06501157,8.27171428 C8.78187968,8.27171428 9.36279005,7.67844411 9.36279005,6.961576 C9.36279005,6.25706768 8.78187968,5.66379752 8.06501157,5.66379752 C7.34814346,5.66379752 6.76723309,6.25706768 6.76723309,6.961576 C6.76723309,7.67844411 7.34814346,8.27171428 8.06501157,8.27171428 Z"/>
        </g>
      </g>
    </symbol>
    <symbol viewBox="0 0 16 16" version="1.1" id="icon--trash">
      <g stroke="none" stroke-width="1" fill="none" fill-rule="evenodd">
        <g transform="translate(1.000000, 0.000000)" fill="currentColor" fill-rule="nonzero">
          <path d="M3.68801653,16 L10.3192149,16 C11.3533058,16 12.0475207,15.3318366 12.0981405,14.3044454 L12.5971074,3.85810507 L13.464876,3.85810507 C13.7613636,3.85810507 14,3.60664571 14,3.31207903 C14,3.01751235 13.7613636,2.77323754 13.464876,2.77323754 L10.160124,2.77323754 L10.160124,1.6740009 C10.160124,0.632240683 9.4803719,0 8.36673554,0 L5.61880165,0 C4.50516529,0 3.82541322,0.632240683 3.82541322,1.6740009 L3.82541322,2.77323754 L0.542355372,2.77323754 C0.253099174,2.77323754 0,3.01751235 0,3.31207903 C0,3.61383026 0.253099174,3.85810507 0.542355372,3.85810507 L1.41012397,3.85810507 L1.90909091,14.31163 C1.95971074,15.3390211 2.63946281,16 3.68801653,16 Z M4.97520661,1.74584643 C4.97520661,1.3363269 5.26446281,1.07049843 5.69834711,1.07049843 L8.28719008,1.07049843 C8.72107438,1.07049843 9.01033058,1.3363269 9.01033058,1.74584643 L9.01033058,2.77323754 L4.97520661,2.77323754 L4.97520661,1.74584643 Z M3.7892562,14.9151325 C3.37706612,14.9151325 3.0661157,14.6061967 3.04442149,14.182308 L2.53822314,3.85810507 L11.4328512,3.85810507 L10.9555785,14.182308 C10.9411157,14.6133812 10.6301653,14.9151325 10.2035124,14.9151325 L3.7892562,14.9151325 Z M4.85950413,13.6865739 C5.13429752,13.6865739 5.31508264,13.5141446 5.30785124,13.2626852 L5.08367769,5.57521329 C5.07644628,5.32375393 4.89566116,5.15850921 4.63533058,5.15850921 C4.36053719,5.15850921 4.17975207,5.33093848 4.18698347,5.58239784 L4.40392562,13.2626852 C4.41115702,13.5213291 4.59194215,13.6865739 4.85950413,13.6865739 Z M7,13.6865739 C7.27479339,13.6865739 7.47004132,13.5141446 7.47004132,13.2626852 L7.47004132,5.58239784 C7.47004132,5.33093848 7.27479339,5.15850921 7,5.15850921 C6.72520661,5.15850921 6.53719008,5.33093848 6.53719008,5.58239784 L6.53719008,13.2626852 C6.53719008,13.5141446 6.72520661,13.6865739 7,13.6865739 Z M9.14772727,13.6865739 C9.40805785,13.6865739 9.58884298,13.5213291 9.59607438,13.2626852 L9.81301653,5.58239784 C9.82024793,5.33093848 9.63946281,5.15850921 9.36466942,5.15850921 C9.10433884,5.15850921 8.92355372,5.32375393 8.91632231,5.58239784 L8.69938017,13.2626852 C8.69214876,13.5141446 8.87293388,13.6865739 9.14772727,13.6865739 Z"/>
        </g>
      </g>
    </symbol>
    <symbol viewBox="0 0 16 16" version="1.1" id="icon--warning">
      <g stroke="none" stroke-width="1" fill="none" fill-rule="evenodd">
        <g transform="translate(0.000000, 1.000000)" fill="currentColor" fill-rule="nonzero">
          <path d="M1.95666827,14.9333333 L14.0433317,14.9333333 C15.2373616,14.9333333 16,14.0434222 16,12.9505489 C16,12.6226869 15.9152624,12.2870186 15.7457872,11.9747691 L9.69090034,1.01481094 C9.32113625,0.335668235 8.66634569,0 8.00385171,0 C7.34135773,0 6.67886375,0.343474473 6.30909966,1.01481094 L0.261916225,11.9825754 C0.0924410207,12.2948249 0,12.6226869 0,12.9505489 C0,14.0434222 0.770341839,14.9333333 1.95666827,14.9333333 Z M8.01155513,9.58606029 C7.55705344,9.58606029 7.30284064,9.32845443 7.2874338,8.86788639 L7.17958594,4.93354243 C7.1641791,4.45736191 7.50312951,4.12169367 8.00385171,4.12169367 C8.48916707,4.12169367 8.84352431,4.45736191 8.82811748,4.93354243 L8.7125662,8.86008015 C8.69715936,9.33626067 8.44294656,9.58606029 8.01155513,9.58606029 Z M8.01155513,12.2714062 C7.4954261,12.2714062 7.06403467,11.8967067 7.06403467,11.381495 C7.06403467,10.8740896 7.48772268,10.4915839 8.01155513,10.4915839 C8.52768416,10.4915839 8.95137217,10.8662833 8.95137217,11.381495 C8.95137217,11.8967067 8.51998074,12.2714062 8.01155513,12.2714062 Z"/>
        </g>
      </g>
    </symbol>
  </defs>
</svg>
