<svg xmlns="http://www.w3.org/2000/svg" width="300" height="27" viewBox="0 0 300 27"><path fill="#0091FF" d="M137.283089,267 C137.950665,267 138.701688,267.541667 138.910306,268.208333 L138.910306,268.208333 L140.036841,271.5 L146.796051,271.5 C148.047757,271.5 149.049121,272.5 149.049121,273.75 L149.049121,273.75 L149.049121,291.75 C149.049121,293 148.047757,294 146.796051,294 L146.796051,294 L115.25307,294 C114.001364,294 113,293 113,291.75 L113,291.75 L113,273.75 C113,272.5 114.001364,271.5 115.25307,271.5 L115.25307,271.5 L122.01228,271.5 L123.097092,268.208333 C123.347433,267.541667 124.056733,267 124.766033,267 L124.766033,267 Z M223.201875,267 C230.988464,267 236.936554,272.917793 236.936554,280.425992 L236.936554,280.425992 L236.936554,280.499965 C236.936554,288.008164 230.916366,293.999929 223.129776,293.999929 C215.343187,293.999929 209.395097,288.082136 209.395097,280.573937 L209.395097,280.573937 L209.395097,280.499965 C209.395097,272.991765 215.415285,267 223.201875,267 Z M276.69863,267 C284.48522,267 290.433309,272.917793 290.433309,280.425992 L290.433309,280.425992 L290.433309,280.499965 C290.433309,288.008164 284.413122,293.999929 276.626532,293.999929 C268.839942,293.999929 262.891853,288.082136 262.891853,280.573937 L262.891853,280.573937 L262.891853,280.499965 C262.891853,272.991765 268.91204,267 276.69863,267 Z M401.392213,267 C406.943764,267 410.692862,269.773965 412.819755,273.731489 L412.819755,273.731489 L405.862293,277.91093 C404.925018,276.06162 403.591204,274.767103 401.284066,274.767103 C398.436193,274.767103 396.561644,277.319151 396.561644,280.425992 L396.561644,280.425992 L396.561644,280.499965 C396.561644,283.865709 398.508291,286.232826 401.284066,286.232826 C403.663302,286.232826 404.997116,284.901323 406.042538,282.97804 L406.042538,282.97804 L413,287.009537 C410.873107,290.856102 407.340303,293.999929 401.067772,293.999929 C394.074261,293.999929 387.981975,288.599943 387.981975,280.573937 L387.981975,280.573937 L387.981975,280.499965 C387.981975,272.769848 393.857967,267 401.392213,267 Z M169.416727,267.554793 C176.121846,267.554793 180.700072,270.624648 180.700072,276.764358 L180.700072,276.764358 L180.700072,276.83833 C180.700072,283.088999 176.049748,286.417757 169.236482,286.417757 L169.236482,286.417757 L166.496756,286.417757 L166.496756,293.445136 L158.061283,293.445136 L158.061283,267.554793 Z M190.937996,267.554793 L190.937996,276.690386 L198.652487,276.690386 L198.652487,267.554793 L207.08796,267.554793 L207.08796,293.445136 L198.652487,293.445136 L198.652487,284.161599 L190.937996,284.161599 L190.937996,293.445136 L182.502523,293.445136 L182.502523,267.554793 L190.937996,267.554793 Z M261.558039,267.554793 L261.558039,274.878062 L254.131939,274.878062 L254.131939,293.445136 L245.696467,293.445136 L245.696467,274.878062 L238.270368,274.878062 L238.270368,267.554793 L261.558039,267.554793 Z M301.53641,267.554793 L306.943764,276.653399 L312.351118,267.554793 L321.14708,267.554793 L321.14708,293.445136 L312.747657,293.445136 L312.747657,280.610923 L306.943764,289.820488 L306.799567,289.820488 L300.995674,280.610923 L300.995674,293.445136 L292.740447,293.445136 L292.740447,267.554793 L301.53641,267.554793 Z M341.190339,267.369862 L351.824802,293.445136 L342.668349,293.445136 L341.334535,289.968433 L332.502523,289.968433 L331.204758,293.445136 L322.192502,293.445136 L332.826965,267.369862 L341.190339,267.369862 Z M375.184571,267.554793 L375.184571,274.878062 L367.758472,274.878062 L367.758472,293.445136 L359.322999,293.445136 L359.322999,274.878062 L351.8969,274.878062 L351.8969,267.554793 L375.184571,267.554793 Z M385.60274,267.554793 L385.60274,293.445136 L377.167267,293.445136 L377.167267,267.554793 L385.60274,267.554793 Z M131.024561,276 C127.269444,276 124.26535,279.041667 124.26535,282.75 C124.26535,286.5 127.269444,289.5 131.024561,289.5 C134.737954,289.5 137.783771,286.5 137.783771,282.75 C137.783771,279.041667 134.737954,276 131.024561,276 Z M223.129776,274.656144 C219.921413,274.656144 217.902668,277.393123 217.902668,280.425992 L217.902668,280.425992 L217.902668,280.499965 C217.902668,283.56982 219.957462,286.343785 223.201875,286.343785 C226.410238,286.343785 228.428983,283.606806 228.428983,280.573937 L228.428983,280.573937 L228.428983,280.499965 C228.428983,277.43011 226.374189,274.656144 223.129776,274.656144 Z M276.626532,274.656144 C273.418169,274.656144 271.399423,277.393123 271.399423,280.425992 L271.399423,280.425992 L271.399423,280.499965 C271.399423,283.56982 273.454218,286.343785 276.69863,286.343785 C279.906994,286.343785 281.925739,283.606806 281.925739,280.573937 L281.925739,280.573937 L281.925739,280.499965 C281.925739,277.43011 279.870944,274.656144 276.626532,274.656144 Z M336.936554,277.541068 L334.629416,283.828723 L339.243691,283.828723 L336.936554,277.541068 Z M168.803893,274.471213 L166.496756,274.471213 L166.496756,280.241061 L168.767844,280.241061 C170.930786,280.241061 172.372747,279.242434 172.372747,277.393123 L172.372747,277.393123 L172.372747,277.319151 C172.372747,275.432855 171.038933,274.471213 168.803893,274.471213 L168.803893,274.471213 Z" transform="translate(-113 -267)"/></svg>