<svg width="16" height="16" viewBox="0 0 16 16" version="1.1" xmlns="http://www.w3.org/2000/svg">
    <path d="M4.327 16c.296 0 .527-.142.881-.469l2.658-2.358h4.739C14.779 13.18 16 11.952 16 9.843V4.33C16 2.221 14.78 1 12.605 1h-9.21C1.221 1 0 2.222 0 4.331v5.511c0 2.11 1.25 3.331 3.344 3.331h.29v2.06c0 .462.26.767.693.767Zm3.677-7.692c-.42 0-.658-.227-.672-.653l-.109-3.58c-.007-.433.311-.738.773-.738.463 0 .795.312.78.745l-.108 3.573c-.014.426-.253.653-.664.653Zm0 2.45c-.477 0-.882-.347-.882-.81 0-.468.398-.816.882-.816.49 0 .888.348.888.817s-.404.81-.888.81Z" fill="#000" fill-rule="nonzero"/>
</svg>
