<?xml version="1.0" encoding="UTF-8"?>
<svg width="16px" height="16px" viewBox="0 0 16 16" version="1.1" xmlns="http://www.w3.org/2000/svg" xmlns:xlink="http://www.w3.org/1999/xlink">
    <title>icon</title>
    <g id="icon" stroke="none" stroke-width="1" fill="none" fill-rule="evenodd">
        <path d="M4.3268623,16 C4.62302483,16 4.85417607,15.8579545 5.20812641,15.53125 L7.86636569,13.1732955 L12.6049661,13.1732955 C14.7792325,13.1803977 16,11.9517045 16,9.84232955 L16,4.33096591 C16,2.22159091 14.7792325,1 12.6049661,1 L3.39503386,1 C1.22076749,1 0,2.22159091 0,4.33096591 L0,9.84232955 C0,11.9517045 1.2496614,13.1732955 3.34446953,13.1732955 L3.63340858,13.1732955 L3.63340858,15.2329545 C3.63340858,15.6946023 3.89345372,16 4.3268623,16 Z M8.00361174,8.30823864 C7.58465011,8.30823864 7.3462754,8.08096591 7.33182844,7.65482955 L7.2234763,4.07528409 C7.21625282,3.64204545 7.53408578,3.33664773 7.99638826,3.33664773 C8.45869074,3.33664773 8.79097065,3.64914773 8.7765237,4.08238636 L8.66817156,7.65482955 C8.6537246,8.08096591 8.41534989,8.30823864 8.00361174,8.30823864 Z M8.00361174,10.7585227 C7.5268623,10.7585227 7.12234763,10.4105114 7.12234763,9.94886364 C7.12234763,9.48011364 7.51963883,9.13210227 8.00361174,9.13210227 C8.49480813,9.13210227 8.89209932,9.48011364 8.89209932,9.94886364 C8.89209932,10.4176136 8.48758465,10.7585227 8.00361174,10.7585227 Z" id="Shape" fill="#000000" fill-rule="nonzero"></path>
    </g>
</svg>