<svg width="16" height="16" xmlns="http://www.w3.org/2000/svg">
    <path d="M2.563 15.586h10.75c1.687 0 2.562-.875 2.562-2.54V3.54C15.875 1.867 15 1 13.312 1H2.563C.875 1 0 1.867 0 3.54v9.507c0 1.672.875 2.539 2.563 2.539Zm-.024-1.531c-.648 0-1.008-.344-1.008-1.024V5.812c0-.687.36-1.023 1.008-1.023H13.32c.657 0 1.024.336 1.024 1.024v7.218c0 .68-.367 1.024-1.024 1.024H2.54ZM6.43 7.5h.462c.28 0 .375-.086.375-.367V6.68c0-.282-.094-.367-.375-.367H6.43c-.274 0-.367.085-.367.367v.453c0 .281.093.367.367.367Zm2.563 0h.453c.282 0 .375-.086.375-.367V6.68c0-.282-.093-.367-.375-.367h-.453c-.281 0-.375.085-.375.367v.453c0 .281.094.367.375.367Zm2.555 0H12c.281 0 .375-.086.375-.367V6.68c0-.282-.094-.367-.375-.367h-.453c-.281 0-.375.085-.375.367v.453c0 .281.094.367.375.367Zm-7.672 2.516h.46c.282 0 .376-.086.376-.368v-.453c0-.28-.094-.367-.375-.367h-.461c-.273 0-.367.086-.367.367v.453c0 .282.094.368.367.368Zm2.555 0h.46c.282 0 .376-.086.376-.368v-.453c0-.28-.094-.367-.375-.367H6.43c-.274 0-.367.086-.367.367v.453c0 .282.093.368.367.368Zm2.562 0h.453c.282 0 .375-.086.375-.368v-.453c0-.28-.093-.367-.375-.367h-.453c-.281 0-.375.086-.375.367v.453c0 .282.094.368.375.368Zm2.555 0H12c.281 0 .375-.086.375-.368v-.453c0-.28-.094-.367-.375-.367h-.453c-.281 0-.375.086-.375.367v.453c0 .282.094.368.375.368ZM3.875 12.53h.46c.282 0 .376-.086.376-.367v-.453c0-.281-.094-.367-.375-.367h-.461c-.273 0-.367.086-.367.367v.453c0 .281.094.367.367.367Zm2.555 0h.46c.282 0 .376-.086.376-.367v-.453c0-.281-.094-.367-.375-.367H6.43c-.274 0-.367.086-.367.367v.453c0 .281.093.367.367.367Zm2.562 0h.453c.282 0 .375-.086.375-.367v-.453c0-.281-.093-.367-.375-.367h-.453c-.281 0-.375.086-.375.367v.453c0 .281.094.367.375.367Z"/>
</svg>
