<?xml version="1.0" encoding="UTF-8"?>
<svg width="16px" height="16px" viewBox="0 0 16 16" version="1.1" xmlns="http://www.w3.org/2000/svg" xmlns:xlink="http://www.w3.org/1999/xlink">
    <title>icon</title>
    <g id="icon" stroke="none" stroke-width="1" fill="none" fill-rule="evenodd">
        <g id="􀉉" transform="translate(0.000000, 1.000000)" fill="#000000" fill-rule="nonzero">
            <path d="M2.5625,14.5859375 L13.3125,14.5859375 C15,14.5859375 15.875,13.7109375 15.875,12.046875 L15.875,2.5390625 C15.875,0.8671875 15,0 13.3125,0 L2.5625,0 C0.875,0 0,0.8671875 0,2.5390625 L0,12.046875 C0,13.71875 0.875,14.5859375 2.5625,14.5859375 Z M2.5390625,13.0546875 C1.890625,13.0546875 1.53125,12.7109375 1.53125,12.03125 L1.53125,4.8125 C1.53125,4.125 1.890625,3.7890625 2.5390625,3.7890625 L13.3203125,3.7890625 C13.9765625,3.7890625 14.34375,4.125 14.34375,4.8125 L14.34375,12.03125 C14.34375,12.7109375 13.9765625,13.0546875 13.3203125,13.0546875 L2.5390625,13.0546875 Z M6.4296875,6.5 L6.890625,6.5 C7.171875,6.5 7.265625,6.4140625 7.265625,6.1328125 L7.265625,5.6796875 C7.265625,5.3984375 7.171875,5.3125 6.890625,5.3125 L6.4296875,5.3125 C6.15625,5.3125 6.0625,5.3984375 6.0625,5.6796875 L6.0625,6.1328125 C6.0625,6.4140625 6.15625,6.5 6.4296875,6.5 Z M8.9921875,6.5 L9.4453125,6.5 C9.7265625,6.5 9.8203125,6.4140625 9.8203125,6.1328125 L9.8203125,5.6796875 C9.8203125,5.3984375 9.7265625,5.3125 9.4453125,5.3125 L8.9921875,5.3125 C8.7109375,5.3125 8.6171875,5.3984375 8.6171875,5.6796875 L8.6171875,6.1328125 C8.6171875,6.4140625 8.7109375,6.5 8.9921875,6.5 Z M11.546875,6.5 L12,6.5 C12.28125,6.5 12.375,6.4140625 12.375,6.1328125 L12.375,5.6796875 C12.375,5.3984375 12.28125,5.3125 12,5.3125 L11.546875,5.3125 C11.265625,5.3125 11.171875,5.3984375 11.171875,5.6796875 L11.171875,6.1328125 C11.171875,6.4140625 11.265625,6.5 11.546875,6.5 Z M3.875,9.015625 L4.3359375,9.015625 C4.6171875,9.015625 4.7109375,8.9296875 4.7109375,8.6484375 L4.7109375,8.1953125 C4.7109375,7.9140625 4.6171875,7.828125 4.3359375,7.828125 L3.875,7.828125 C3.6015625,7.828125 3.5078125,7.9140625 3.5078125,8.1953125 L3.5078125,8.6484375 C3.5078125,8.9296875 3.6015625,9.015625 3.875,9.015625 Z M6.4296875,9.015625 L6.890625,9.015625 C7.171875,9.015625 7.265625,8.9296875 7.265625,8.6484375 L7.265625,8.1953125 C7.265625,7.9140625 7.171875,7.828125 6.890625,7.828125 L6.4296875,7.828125 C6.15625,7.828125 6.0625,7.9140625 6.0625,8.1953125 L6.0625,8.6484375 C6.0625,8.9296875 6.15625,9.015625 6.4296875,9.015625 Z M8.9921875,9.015625 L9.4453125,9.015625 C9.7265625,9.015625 9.8203125,8.9296875 9.8203125,8.6484375 L9.8203125,8.1953125 C9.8203125,7.9140625 9.7265625,7.828125 9.4453125,7.828125 L8.9921875,7.828125 C8.7109375,7.828125 8.6171875,7.9140625 8.6171875,8.1953125 L8.6171875,8.6484375 C8.6171875,8.9296875 8.7109375,9.015625 8.9921875,9.015625 Z M11.546875,9.015625 L12,9.015625 C12.28125,9.015625 12.375,8.9296875 12.375,8.6484375 L12.375,8.1953125 C12.375,7.9140625 12.28125,7.828125 12,7.828125 L11.546875,7.828125 C11.265625,7.828125 11.171875,7.9140625 11.171875,8.1953125 L11.171875,8.6484375 C11.171875,8.9296875 11.265625,9.015625 11.546875,9.015625 Z M3.875,11.53125 L4.3359375,11.53125 C4.6171875,11.53125 4.7109375,11.4453125 4.7109375,11.1640625 L4.7109375,10.7109375 C4.7109375,10.4296875 4.6171875,10.34375 4.3359375,10.34375 L3.875,10.34375 C3.6015625,10.34375 3.5078125,10.4296875 3.5078125,10.7109375 L3.5078125,11.1640625 C3.5078125,11.4453125 3.6015625,11.53125 3.875,11.53125 Z M6.4296875,11.53125 L6.890625,11.53125 C7.171875,11.53125 7.265625,11.4453125 7.265625,11.1640625 L7.265625,10.7109375 C7.265625,10.4296875 7.171875,10.34375 6.890625,10.34375 L6.4296875,10.34375 C6.15625,10.34375 6.0625,10.4296875 6.0625,10.7109375 L6.0625,11.1640625 C6.0625,11.4453125 6.15625,11.53125 6.4296875,11.53125 Z M8.9921875,11.53125 L9.4453125,11.53125 C9.7265625,11.53125 9.8203125,11.4453125 9.8203125,11.1640625 L9.8203125,10.7109375 C9.8203125,10.4296875 9.7265625,10.34375 9.4453125,10.34375 L8.9921875,10.34375 C8.7109375,10.34375 8.6171875,10.4296875 8.6171875,10.7109375 L8.6171875,11.1640625 C8.6171875,11.4453125 8.7109375,11.53125 8.9921875,11.53125 Z" id="Shape"></path>
        </g>
    </g>
</svg>