<svg width="16" height="16" xmlns="http://www.w3.org/2000/svg">
    <path d="M2.124 14.503h11.752c1.399 0 2.124-.725 2.124-2.104V5.607c0-1.38-.725-2.105-2.124-2.105h-1.774c-.505 0-.667-.084-.978-.414l-.518-.557C10.27 2.181 9.933 2 9.272 2H6.695c-.66 0-.997.181-1.334.531l-.518.557c-.304.324-.472.414-.977.414H2.124C.725 3.502 0 4.227 0 5.607v6.792c0 1.38.725 2.104 2.124 2.104Zm.078-1.269c-.596 0-.933-.317-.933-.945V5.717c0-.628.337-.946.933-.946h2.033c.576 0 .88-.097 1.204-.46l.499-.543c.362-.395.557-.499 1.126-.499h1.84c.57 0 .763.104 1.126.492l.499.55c.323.357.628.46 1.204.46h2.072c.596 0 .926.318.926.946v6.572c0 .628-.33.945-.926.945H2.202Zm5.801-.86A3.488 3.488 0 0 0 11.5 8.87a3.489 3.489 0 0 0-3.497-3.51 3.489 3.489 0 0 0-3.496 3.51 3.483 3.483 0 0 0 3.496 3.503Zm3.717-5.835c0 .473.382.842.848.835a.841.841 0 0 0 .835-.835.855.855 0 0 0-.835-.835.857.857 0 0 0-.848.835Zm-3.717 4.675A2.34 2.34 0 0 1 5.66 8.87a2.34 2.34 0 0 1 2.344-2.35 2.34 2.34 0 0 1 2.344 2.35 2.34 2.34 0 0 1-2.344 2.344Z"/>
</svg>
