<?xml version="1.0" encoding="UTF-8"?>
<svg width="16px" height="16px" viewBox="0 0 16 16" version="1.1" xmlns="http://www.w3.org/2000/svg" xmlns:xlink="http://www.w3.org/1999/xlink">
    <title>icon</title>
    <g id="icon" stroke="none" stroke-width="1" fill="none" fill-rule="evenodd">
        <g id="􀌞" transform="translate(0.000000, 2.000000)" fill="#000000" fill-rule="nonzero">
            <path d="M2.1238365,12.5034399 L13.8761635,12.5034399 C15.2747875,12.5034399 16,11.7782274 16,10.3990287 L16,3.60663699 C16,2.22743828 15.2747875,1.50222582 13.8761635,1.50222582 L12.101983,1.50222582 C11.5969243,1.50222582 11.4350465,1.41804937 11.1242412,1.0878187 L10.6062323,0.530959126 C10.2695265,0.181303116 9.93282072,0 9.27235937,0 L6.69526507,0 C6.03480372,0 5.69809794,0.181303116 5.36139215,0.530959126 L4.84338325,1.0878187 C4.53905301,1.41157426 4.37070012,1.50222582 3.86564144,1.50222582 L2.1238365,1.50222582 C0.725212465,1.50222582 0,2.22743828 0,3.60663699 L0,10.3990287 C0,11.7782274 0.725212465,12.5034399 2.1238365,12.5034399 Z M2.20153784,11.2343181 C1.6058276,11.2343181 1.26912181,10.9170376 1.26912181,10.2889518 L1.26912181,3.71671388 C1.26912181,3.08862809 1.6058276,2.77134763 2.20153784,2.77134763 L4.23472278,2.77134763 C4.81100769,2.77134763 5.11533792,2.67422096 5.43909348,2.31161473 L5.93767705,1.76770538 C6.30028329,1.37272359 6.49453662,1.26912181 7.06434642,1.26912181 L8.90327803,1.26912181 C9.47308782,1.26912181 9.66734116,1.37272359 10.0299474,1.76123027 L10.528531,2.31161473 C10.8522865,2.66774585 11.1566168,2.77134763 11.7329017,2.77134763 L13.8049373,2.77134763 C14.4006475,2.77134763 14.7308782,3.08862809 14.7308782,3.71671388 L14.7308782,10.2889518 C14.7308782,10.9170376 14.4006475,11.2343181 13.8049373,11.2343181 L2.20153784,11.2343181 Z M8.00323756,10.3731283 C9.93929583,10.3731283 11.4997977,8.81910158 11.4997977,6.87009308 C11.4997977,4.92108458 9.94577094,3.36058276 8.00323756,3.36058276 C6.06070417,3.36058276 4.50667746,4.92108458 4.50667746,6.87009308 C4.50667746,8.81910158 6.06070417,10.3731283 8.00323756,10.3731283 Z M11.7199514,4.53905301 C11.7199514,5.01173614 12.101983,5.38081748 12.568191,5.37434237 C13.0149737,5.37434237 13.4034804,5.00526103 13.4034804,4.53905301 C13.4034804,4.09227034 13.0149737,3.70376366 12.568191,3.70376366 C12.1084581,3.70376366 11.7199514,4.09227034 11.7199514,4.53905301 Z M8.00323756,9.21408337 C6.7082153,9.21408337 5.65924727,8.17159045 5.65924727,6.87009308 C5.65924727,5.5621206 6.7082153,4.51962768 8.00323756,4.51962768 C9.29825981,4.51962768 10.3472278,5.5621206 10.3472278,6.87009308 C10.3472278,8.17159045 9.29825981,9.21408337 8.00323756,9.21408337 Z" id="Shape"></path>
        </g>
    </g>
</svg>