<svg width="16" height="16" viewBox="0 0 16 16" version="1.1" xmlns="http://www.w3.org/2000/svg">
    <path d="M7.311 15.992H8.69c.444 0 .783-.263.873-.7l.384-1.604a8.1 8.1 0 0 0 .73-.293l1.401.858c.37.234.798.196 1.107-.113l.964-.964a.87.87 0 0 0 .105-1.129l-.85-1.385c.105-.234.21-.475.285-.708L15.3 9.57c.436-.098.7-.43.7-.874V7.341c0-.444-.264-.775-.7-.873l-1.596-.384a7.836 7.836 0 0 0-.287-.716l.851-1.415c.241-.377.211-.798-.105-1.114l-.979-.964c-.316-.286-.708-.339-1.084-.128l-1.423.873a6.137 6.137 0 0 0-.73-.293L9.561.7C9.472.264 9.133 0 8.69 0H7.31c-.452 0-.783.264-.88.708l-.377 1.604a6.15 6.15 0 0 0-.746.3l-1.415-.865c-.377-.211-.768-.166-1.085.128l-.978.964c-.317.316-.347.737-.106 1.114l.851 1.415c-.09.204-.196.445-.279.716L.7 6.468c-.436.098-.7.429-.7.873v1.355c0 .445.264.776.7.874l1.612.384c.075.233.173.474.278.708l-.85 1.385a.87.87 0 0 0 .105 1.13l.963.963c.31.309.746.347 1.115.113l1.393-.858c.226.105.474.203.738.293l.376 1.604c.098.437.43.7.881.7Zm.693-5.36A2.651 2.651 0 0 1 5.36 7.989c0-1.438 1.19-2.628 2.643-2.628a2.64 2.64 0 0 1 2.628 2.628c0 1.453-1.183 2.643-2.628 2.643Z" fill="#000" fill-rule="nonzero"/>
</svg>
