<svg width="16" height="16" xmlns="http://www.w3.org/2000/svg">
    <path d="M0 5.995c0 3.431 2.836 6.814 7.263 9.7.246.153.539.305.737.305.206 0 .499-.152.737-.305C13.164 12.81 16 9.426 16 5.995 16 3.052 13.996 1 11.398 1 9.893 1 8.713 1.706 8 2.764 7.303 1.714 6.115 1 4.602 1 2.012 1 0 3.052 0 5.995Zm1.6 0c0-2.037 1.315-3.408 3.09-3.408 1.433 0 2.233.882 2.732 1.652.222.32.372.425.578.425.214 0 .34-.112.578-.425.53-.762 1.315-1.652 2.74-1.652 1.775 0 3.09 1.371 3.09 3.408 0 2.838-2.923 5.972-6.258 8.217-.07.048-.118.08-.15.08s-.08-.032-.15-.08C4.515 11.967 1.6 8.832 1.6 5.995Z"/>
</svg>
