<svg width="16" height="16" viewBox="0 0 16 16" version="1.1" xmlns="http://www.w3.org/2000/svg">
    <path d="M8 16c4.376 0 8-3.617 8-8 0-4.376-3.624-8-8.008-8C3.617 0 0 3.624 0 8c0 4.383 3.624 8 8 8Zm0-1.572A6.405 6.405 0 0 1 1.58 8c0-3.562 2.85-6.42 6.412-6.42A6.417 6.417 0 0 1 14.428 8 6.412 6.412 0 0 1 8 14.428Zm-.046-9.061a1.05 1.05 0 0 0 1.053-1.053 1.053 1.053 0 1 0-2.107 0c0 .58.473 1.053 1.054 1.053Zm-1.325 6.846h3.144c.349 0 .62-.248.62-.596a.602.602 0 0 0-.62-.597h-.867V7.342c0-.465-.232-.767-.666-.767H6.77a.607.607 0 0 0-.62.596c0 .349.279.597.62.597h.79v3.252h-.93a.6.6 0 0 0-.612.597c0 .348.271.596.612.596Z" fill="#000" fill-rule="nonzero"/>
</svg>
