<svg width="16" height="16" viewBox="0 0 16 16" version="1.1" xmlns="http://www.w3.org/2000/svg">
    <path d="M8.07 16.14c4.414 0 8.07-3.648 8.07-8.07C16.14 3.656 12.485 0 8.063 0 3.649 0 0 3.656 0 8.07c0 4.422 3.656 8.07 8.07 8.07ZM4.82 6.095c-.14.226-.25.46-.343.71L2.93 4.118a6.425 6.425 0 0 1 4.476-2.492L4.82 6.094ZM8.102 4.25H8.07c-.242 0-.476.023-.703.07l1.547-2.68a6.47 6.47 0 0 1 4.406 2.618L8.102 4.25ZM1.594 8.07c0-.945.203-1.851.562-2.656l2.508 4.352a3.7 3.7 0 0 0 .547.796H2.086a6.593 6.593 0 0 1-.492-2.492Zm12.96 0c0 .953-.202 1.852-.562 2.664l-2.515-4.359a4.023 4.023 0 0 0-.54-.805h3.118c.32.766.492 1.61.5 2.5ZM8.07 10.562c-.96 0-1.812-.57-2.226-1.39l-.008-.016a2.443 2.443 0 0 1-.258-1.086c0-1.367 1.133-2.5 2.492-2.5.97 0 1.82.57 2.235 1.399h-.008l.015.023c.165.328.25.696.25 1.078 0 .477-.14.93-.374 1.313h-.008a2.49 2.49 0 0 1-2.11 1.18Zm3.25-.523c.14-.219.25-.46.344-.71l1.555 2.694a6.442 6.442 0 0 1-4.492 2.493l2.593-4.477Zm-3.25 1.844c.242 0 .477-.024.711-.07L7.227 14.5a6.418 6.418 0 0 1-4.407-2.625l5.22.008h.03Z" fill="#000" fill-rule="nonzero"/>
</svg>
