<?xml version="1.0" encoding="UTF-8"?>
<svg width="16px" height="16px" viewBox="0 0 16 16" version="1.1" xmlns="http://www.w3.org/2000/svg" xmlns:xlink="http://www.w3.org/1999/xlink">
    <title>icon</title>
    <g id="icon" stroke="none" stroke-width="1" fill="none" fill-rule="evenodd">
        <g id="􀨺" fill="#000000" fill-rule="nonzero">
            <path d="M8.0703125,16.140625 C12.484375,16.140625 16.140625,12.4921875 16.140625,8.0703125 C16.140625,3.65625 12.484375,0 8.0625,0 C3.6484375,0 0,3.65625 0,8.0703125 C0,12.4921875 3.65625,16.140625 8.0703125,16.140625 Z M4.8203125,6.09375 C4.6796875,6.3203125 4.5703125,6.5546875 4.4765625,6.8046875 L2.9296875,4.1171875 C3.984375,2.7421875 5.578125,1.8046875 7.40625,1.625 L4.8203125,6.09375 Z M8.1015625,4.25 C8.09375,4.25 8.078125,4.25 8.0703125,4.25 C7.828125,4.25 7.59375,4.2734375 7.3671875,4.3203125 L8.9140625,1.640625 C10.7265625,1.875 12.296875,2.8515625 13.3203125,4.2578125 L8.1015625,4.25 Z M1.59375,8.0703125 C1.59375,7.125 1.796875,6.21875 2.15625,5.4140625 L4.6640625,9.765625 C4.8125,10.0546875 4.9921875,10.3203125 5.2109375,10.5625 L2.0859375,10.5625 C1.7734375,9.796875 1.59375,8.953125 1.59375,8.0703125 Z M14.5546875,8.0703125 C14.5546875,9.0234375 14.3515625,9.921875 13.9921875,10.734375 L11.4765625,6.375 C11.328125,6.0859375 11.1484375,5.8125 10.9375,5.5703125 L14.0546875,5.5703125 C14.375,6.3359375 14.546875,7.1796875 14.5546875,8.0703125 Z M8.0703125,10.5625 C7.109375,10.5625 6.2578125,9.9921875 5.84375,9.171875 L5.8359375,9.15625 C5.671875,8.828125 5.578125,8.453125 5.578125,8.0703125 C5.578125,6.703125 6.7109375,5.5703125 8.0703125,5.5703125 C9.0390625,5.5703125 9.890625,6.140625 10.3046875,6.96875 L10.296875,6.96875 L10.3125,6.9921875 C10.4765625,7.3203125 10.5625,7.6875 10.5625,8.0703125 C10.5625,8.546875 10.421875,9 10.1875,9.3828125 L10.1796875,9.3828125 C9.734375,10.09375 8.953125,10.5625 8.0703125,10.5625 Z M11.3203125,10.0390625 C11.4609375,9.8203125 11.5703125,9.578125 11.6640625,9.328125 L13.21875,12.0234375 C12.1640625,13.3984375 10.5625,14.3359375 8.7265625,14.515625 L11.3203125,10.0390625 Z M8.0703125,11.8828125 C8.3125,11.8828125 8.546875,11.859375 8.78125,11.8125 L7.2265625,14.5 C5.40625,14.265625 3.8359375,13.2890625 2.8203125,11.875 L8.0390625,11.8828125 C8.046875,11.8828125 8.0625,11.8828125 8.0703125,11.8828125 Z" id="Shape"></path>
        </g>
    </g>
</svg>