<svg width="16" height="16" viewBox="0 0 16 16" version="1.1" xmlns="http://www.w3.org/2000/svg">
    <path d="M1.076 10.613c.228 1.304 1.02 1.854 2.342 1.625l.099-.018v.037c0 1.322.686 2.002 2.027 2.002h8.429c1.335 0 2.027-.686 2.027-2.002V6.386c0-1.323-.692-2.009-2.027-2.009h-1.378l-.303-1.705c-.229-1.298-1.026-1.854-2.342-1.62L1.7 2.505C.383 2.74-.18 3.537.05 4.835l1.026 5.778Zm1.168-.31L1.26 4.73c-.105-.599.154-.945.717-1.044l8.108-1.427c.562-.1.927.135 1.038.729l.247 1.39H5.544c-1.341 0-2.027.686-2.027 2.009v4.604l-.241.043c-.563.099-.927-.136-1.032-.73Zm2.478-3.812c0-.6.315-.903.89-.903h8.293c.569 0 .89.303.89.903v4.777l-2.262-2.126a1.176 1.176 0 0 0-1.625-.006l-2.435 2.157-.964-.878a1.06 1.06 0 0 0-.736-.303c-.234 0-.463.1-.692.297l-1.36 1.186V6.491Zm3.343 2.78c.717 0 1.298-.593 1.298-1.31 0-.704-.581-1.297-1.298-1.297-.717 0-1.298.593-1.298 1.298 0 .716.581 1.31 1.298 1.31Z" fill="#000" fill-rule="nonzero"/>
</svg>
