<?xml version="1.0" encoding="UTF-8"?>
<svg width="16px" height="16px" viewBox="0 0 16 16" version="1.1" xmlns="http://www.w3.org/2000/svg" xmlns:xlink="http://www.w3.org/1999/xlink">
    <title>icon</title>
    <g id="icon" stroke="none" stroke-width="1" fill="none" fill-rule="evenodd">
        <g id="􀣵" transform="translate(0.000000, 1.000000)" fill="#000000" fill-rule="nonzero">
            <path d="M1.07554746,9.61275204 C1.30420367,10.9167104 2.09523056,11.4667213 3.41772863,11.2380651 L3.51660699,11.2195254 L3.51660699,11.2566048 C3.51660699,12.5791029 4.20257561,13.2588916 5.54361338,13.2588916 L13.9729936,13.2588916 C15.3078515,13.2588916 16,12.572923 16,11.2566048 L16,5.38570213 C16,4.06320406 15.3078515,3.37723543 13.9729936,3.37723543 L12.5948765,3.37723543 L12.2920615,1.67158371 C12.0634053,0.373805231 11.2661985,-0.182385547 9.94988032,0.0524505595 L1.69971711,1.50472648 C0.383398939,1.73956259 -0.178971736,2.53676937 0.0496844726,3.83454785 L1.07554746,9.61275204 Z M2.2435481,9.30375716 L1.26094439,3.72948959 C1.15588613,3.13003953 1.41544183,2.78396527 1.9778125,2.68508691 L10.0858381,1.25753058 C10.6482087,1.15865222 11.0128227,1.39348832 11.1240608,1.98675849 L11.3712567,3.37723543 L5.54361338,3.37723543 C4.20257561,3.37723543 3.51660699,4.06320406 3.51660699,5.38570213 L3.51660699,9.98972579 L3.27559098,10.0329851 C2.71322031,10.1318634 2.34860635,9.89702733 2.2435481,9.30375716 Z M4.72168701,5.49076039 C4.72168701,4.89131033 5.03686178,4.58849535 5.61159225,4.58849535 L13.9050147,4.58849535 C14.4735653,4.58849535 14.79492,4.89131033 14.79492,5.49076039 L14.79492,10.2678212 L12.5330775,8.14193643 C12.2982414,7.91946012 12.0139661,7.81440186 11.717331,7.81440186 C11.4268758,7.81440186 11.1549603,7.91328022 10.9077644,8.13575653 L8.47288481,10.2925408 L7.50882079,9.41499532 C7.28016458,9.2048788 7.03296868,9.11218034 6.77341299,9.11218034 C6.53857688,9.11218034 6.30992067,9.2110587 6.08126446,9.40881542 L4.72168701,10.5953557 L4.72168701,5.49076039 Z M8.06501157,8.27171428 C8.78187968,8.27171428 9.36279005,7.67844411 9.36279005,6.961576 C9.36279005,6.25706768 8.78187968,5.66379752 8.06501157,5.66379752 C7.34814346,5.66379752 6.76723309,6.25706768 6.76723309,6.961576 C6.76723309,7.67844411 7.34814346,8.27171428 8.06501157,8.27171428 Z" id="Shape"></path>
        </g>
    </g>
</svg>