<?xml version="1.0" encoding="UTF-8"?>
<svg width="16px" height="16px" viewBox="0 0 16 16" version="1.1" xmlns="http://www.w3.org/2000/svg" xmlns:xlink="http://www.w3.org/1999/xlink">
    <title>icon</title>
    <g id="icon" stroke="none" stroke-width="1" fill="none" fill-rule="evenodd">
        <g id="􀎫" transform="translate(1.000000, 0.000000)" fill="#000000" fill-rule="nonzero">
            <path d="M4.26719446,2.83571429 C4.26719446,4.13571429 5.11232063,5.23571429 6.27610094,5.56428571 L6.27610094,10.0642857 C6.27610094,12.0071429 6.69866403,13.2071429 7.00346363,13.2071429 C7.30133597,13.2071429 7.7169718,12.0142857 7.7169718,10.0642857 L7.7169718,5.56428571 C8.88767937,5.24285714 9.73973281,4.13571429 9.73973281,2.83571429 C9.73973281,1.27857143 8.52053439,0 7.00346363,0 C5.47946561,0 4.26719446,1.27857143 4.26719446,2.83571429 Z M6.22761009,2.99285714 C5.72884711,2.99285714 5.28550223,2.54285714 5.28550223,2.02142857 C5.28550223,1.5 5.72884711,1.05714286 6.22761009,1.05714286 C6.74022761,1.05714286 7.1627907,1.5 7.1627907,2.02142857 C7.1627907,2.54285714 6.74022761,2.99285714 6.22761009,2.99285714 Z M6.99653637,16 C11.3884216,16 14,14.4785714 14,12.7357143 C14,10.8142857 11.1390401,9.58571429 8.89460663,9.49285714 L8.89460663,10.75 C10.4186047,10.8142857 12.4275111,11.5571429 12.4275111,12.5928571 C12.4275111,13.8214286 10.1415141,14.6714286 6.99653637,14.6714286 C3.85155863,14.6714286 1.57248887,13.8285714 1.57248887,12.5928571 C1.57248887,11.5571429 3.58139535,10.8142857 5.09846611,10.75 L5.09846611,9.49285714 C2.86095992,9.58571429 0,10.8142857 0,12.7357143 C0,14.4785714 2.61157843,16 6.99653637,16 Z" id="Shape"></path>
        </g>
    </g>
</svg>