<svg width="16" height="16" xmlns="http://www.w3.org/2000/svg">
    <path d="M5.267 2.836c0 1.3.845 2.4 2.01 2.728v4.5c0 1.943.422 3.143.726 3.143.298 0 .714-1.193.714-3.143v-4.5c1.17-.321 2.023-1.428 2.023-2.728C10.74 1.279 9.52 0 8.003 0 6.48 0 5.267 1.279 5.267 2.836Zm1.96.157c-.498 0-.941-.45-.941-.972 0-.521.443-.964.942-.964.512 0 .935.443.935.964 0 .522-.423.972-.935.972ZM7.998 16C12.388 16 15 14.479 15 12.736c0-1.922-2.861-3.15-5.105-3.243v1.257c1.524.064 3.533.807 3.533 1.843 0 1.228-2.286 2.078-5.431 2.078s-5.425-.842-5.425-2.078c0-1.036 2.01-1.779 3.526-1.843V9.493C3.861 9.586 1 10.814 1 12.736 1 14.479 3.612 16 7.997 16Z" fill="#000"/>
</svg>
