<svg width="16" height="16" xmlns="http://www.w3.org/2000/svg">
    <path d="M4.688 16h6.631c1.034 0 1.729-.668 1.78-1.696l.498-10.446h.868A.545.545 0 0 0 15 3.312a.538.538 0 0 0-.535-.539H11.16V1.674C11.16.632 10.48 0 9.367 0H6.619C5.505 0 4.825.632 4.825 1.674v1.1H1.542A.55.55 0 0 0 1 3.311a.55.55 0 0 0 .542.546h.868l.5 10.454C2.96 15.339 3.64 16 4.687 16ZM5.975 1.746c0-.41.29-.676.723-.676h2.59c.433 0 .722.266.722.676v1.027H5.975V1.746ZM4.79 14.916c-.412 0-.723-.31-.745-.734L3.538 3.858h8.895l-.477 10.324c-.015.431-.326.733-.752.733H4.789Zm1.07-1.23c.275 0 .456-.172.449-.423l-.224-7.688c-.008-.251-.188-.416-.449-.416-.274 0-.455.172-.448.423l.217 7.68c.007.26.188.425.456.425Zm2.141 0c.275 0 .47-.172.47-.423v-7.68c0-.252-.195-.424-.47-.424-.275 0-.463.172-.463.423v7.68c0 .252.188.425.463.425Zm2.148 0c.26 0 .44-.165.448-.423l.217-7.68c.007-.252-.174-.424-.448-.424-.26 0-.441.165-.449.423l-.217 7.68c-.007.252.174.425.449.425Z" fill="#000"/>
</svg>
