<?xml version="1.0" encoding="UTF-8"?>
<svg width="16px" height="16px" viewBox="0 0 16 16" version="1.1" xmlns="http://www.w3.org/2000/svg" xmlns:xlink="http://www.w3.org/1999/xlink">
    <title>icon</title>
    <g id="icon" stroke="none" stroke-width="1" fill="none" fill-rule="evenodd">
        <g id="􀇿" transform="translate(0.000000, 1.000000)" fill="#000000" fill-rule="nonzero">
            <path d="M1.95666827,14.9333333 L14.0433317,14.9333333 C15.2373616,14.9333333 16,14.0434222 16,12.9505489 C16,12.6226869 15.9152624,12.2870186 15.7457872,11.9747691 L9.69090034,1.01481094 C9.32113625,0.335668235 8.66634569,0 8.00385171,0 C7.34135773,0 6.67886375,0.343474473 6.30909966,1.01481094 L0.261916225,11.9825754 C0.0924410207,12.2948249 0,12.6226869 0,12.9505489 C0,14.0434222 0.770341839,14.9333333 1.95666827,14.9333333 Z M8.01155513,9.58606029 C7.55705344,9.58606029 7.30284064,9.32845443 7.2874338,8.86788639 L7.17958594,4.93354243 C7.1641791,4.45736191 7.50312951,4.12169367 8.00385171,4.12169367 C8.48916707,4.12169367 8.84352431,4.45736191 8.82811748,4.93354243 L8.7125662,8.86008015 C8.69715936,9.33626067 8.44294656,9.58606029 8.01155513,9.58606029 Z M8.01155513,12.2714062 C7.4954261,12.2714062 7.06403467,11.8967067 7.06403467,11.381495 C7.06403467,10.8740896 7.48772268,10.4915839 8.01155513,10.4915839 C8.52768416,10.4915839 8.95137217,10.8662833 8.95137217,11.381495 C8.95137217,11.8967067 8.51998074,12.2714062 8.01155513,12.2714062 Z" id="Shape"></path>
        </g>
    </g>
</svg>