<svg width="16" height="16" viewBox="0 0 16 16" version="1.1" xmlns="http://www.w3.org/2000/svg">
    <path d="M1.957 15.933h12.086c1.194 0 1.957-.89 1.957-1.982 0-.328-.085-.664-.254-.976L9.69 2.015A1.898 1.898 0 0 0 8.004 1c-.663 0-1.325.343-1.695 1.015L.262 12.983A2.03 2.03 0 0 0 0 13.95c0 1.092.77 1.982 1.957 1.982Zm6.055-5.347c-.455 0-.71-.258-.725-.718L7.18 5.934c-.016-.477.323-.812.824-.812.485 0 .84.335.824.812L8.713 9.86c-.016.476-.27.726-.701.726Zm0 2.685c-.517 0-.948-.374-.948-.89 0-.507.424-.89.948-.89.516 0 .94.375.94.89 0 .516-.432.89-.94.89Z" fill="#000" fill-rule="nonzero"/>
</svg>
